<?xml version="1.0" encoding="utf-8"?>
<!-- Generator: Adobe Illustrator 24.0.0, SVG Export Plug-In . SVG Version: 6.00 Build 0)  -->
<svg version="1.1" id="图层_1" xmlns="http://www.w3.org/2000/svg" xmlns:xlink="http://www.w3.org/1999/xlink" x="0px" y="0px"
	 viewBox="0 0 48 48" style="enable-background:new 0 0 48 48;" xml:space="preserve">
<style type="text/css">
	.st0{fill:#5A7A4F;}
</style>
<path class="st0" d="M19.7,38.6c1.2,1.2,2.7,1.8,4.3,1.8s3.2-0.6,4.3-1.8l13.2-13.2c1.2-1.2,1.8-2.7,1.8-4.3c0-1.6-0.6-3.2-1.8-4.3
	c-0.3-0.3-0.8-0.5-1.2-0.5H34V6.1C34,2.8,31.2,0,27.8,0l-7.7,0C16.8,0,14,2.8,14,6.1v10.1H7.7c-0.5,0-0.9,0.2-1.2,0.5
	c-1.2,1.2-1.8,2.7-1.8,4.3c0,1.6,0.6,3.2,1.8,4.3L19.7,38.6z M8.6,19.7h7.2c1,0,1.8-0.8,1.8-1.8V6.1c0-1.4,1.2-2.6,2.6-2.6h7.7
	c1.4,0,2.6,1.2,2.6,2.6V18c0,1,0.8,1.8,1.8,1.8h7.2c0.6,1,0.5,2.3-0.4,3.2L25.9,36.1c-0.5,0.5-1.2,0.8-1.9,0.8
	c-0.7,0-1.4-0.3-1.9-0.8L9,22.9c-0.5-0.5-0.8-1.2-0.8-1.9C8.2,20.6,8.4,20.1,8.6,19.7z M40.8,43.3H7.2c-1.4,0-2.6,1.1-2.6,2.3
	S5.8,48,7.2,48l33.6,0c1.4,0,2.6-1.1,2.6-2.3S42.2,43.3,40.8,43.3z"/>
</svg>
