<?xml version="1.0" encoding="utf-8"?>
<!-- Generator: Adobe Illustrator 24.0.0, SVG Export Plug-In . SVG Version: 6.00 Build 0)  -->
<svg version="1.1" id="图层_1" xmlns="http://www.w3.org/2000/svg" xmlns:xlink="http://www.w3.org/1999/xlink" x="0px" y="0px"
	 viewBox="0 0 48 48" style="enable-background:new 0 0 48 48;" xml:space="preserve">
<style type="text/css">
	.st0{fill:#5A7A4F;}
</style>
<path class="st0" d="M28.3,9.4c-1.2-1.2-2.7-1.8-4.3-1.8s-3.2,0.6-4.3,1.8L6.5,22.6c-1.2,1.2-1.8,2.7-1.8,4.3c0,1.6,0.6,3.2,1.8,4.3
	c0.3,0.3,0.8,0.5,1.2,0.5H14v10.1c0,3.4,2.8,6.1,6.1,6.1h7.7c3.4,0,6.1-2.8,6.1-6.1V31.8h6.3c0.5,0,0.9-0.2,1.2-0.5
	c1.2-1.2,1.8-2.7,1.8-4.3c0-1.6-0.6-3.2-1.8-4.3L28.3,9.4z M39.4,28.3h-7.2c-1,0-1.8,0.8-1.8,1.8v11.8c0,1.4-1.2,2.6-2.6,2.6h-7.7
	c-1.4,0-2.6-1.2-2.6-2.6V30c0-1-0.8-1.8-1.8-1.8H8.6c-0.6-1-0.5-2.3,0.4-3.2l13.2-13.2c0.5-0.5,1.2-0.8,1.9-0.8s1.4,0.3,1.9,0.8
	L39,25.1c0.5,0.5,0.8,1.2,0.8,1.9C39.8,27.4,39.6,27.9,39.4,28.3z M7.2,4.7h33.6c1.4,0,2.6-1.1,2.6-2.3S42.2,0,40.8,0H7.2
	C5.8,0,4.6,1.1,4.6,2.3S5.8,4.7,7.2,4.7z"/>
</svg>
