<?xml version="1.0" encoding="utf-8"?>
<!-- Generator: Adobe Illustrator 19.2.1, SVG Export Plug-In . SVG Version: 6.00 Build 0)  -->
<svg version="1.1" id="layer" xmlns="http://www.w3.org/2000/svg" xmlns:xlink="http://www.w3.org/1999/xlink" x="0px" y="0px"
	 viewBox="0 0 652 652" style="enable-background:new 0 0 652 652;" xml:space="preserve">
<style type="text/css">
	.st0{fill-rule:evenodd;clip-rule:evenodd;fill:#939494;}
	.st1{fill:#939494;}
	.st2{fill:#F4A11A;}
</style>
<path class="st0" d="M31,381.2h29V398H31V381.2z M34.5,394.7L34.5,394.7h22.1v-10.2H34.5V394.7z M61.4,421.1L61.4,421.1h-9.7v3.5
	h-3.9v-22.8h17.5v22.8h-3.9V421.1z M51.7,417.3L51.7,417.3h9.7v-11.9h-9.7V417.3z M43.2,401.9L43.2,401.9v22.9h-3.9v-3.5h-9.4v3.7
	l-3.9-0.1v-23H43.2z M39.3,405.6L39.3,405.6h-9.4v11.9h9.4V405.6z"/>
<g>
	<path class="st0" d="M97.8,401.8v-20.3c15.4-0.1,25.9-0.9,31.7-2.6l2.1,3.4c-6.9,2-16.9,3.1-29.9,3.2v18.9c0,8.7-2.4,15.4-7.2,20.1
		l-3.1-2.7C95.6,417.7,97.8,411,97.8,401.8 M103.2,392.7h13.5v3h-11v18.7h3.7v-15h17.7v15.1h3.9v-18.9h-10.4v-3h15.7V389h-15.7v-2.9
		h-3.9v2.9h-13.5V392.7z M102.8,424.7c3.8-0.8,7-2.1,9.5-3.9c2.4-1.7,4.3-3.7,5.5-5.9c1.2-2.2,1.9-5.4,1.9-9.7c0-0.8,0-1.8-0.1-2.9
		l-3.7-0.6l-0.3,5.2c0,3.5-1.2,6.5-3.6,9c-2.4,2.5-6.1,4.2-11,4.9L102.8,424.7z M118.6,416.3c5.6,1.9,10.2,4.7,13.8,8.6l2.6-2.9
		c-3.3-4-8.1-6.8-14.1-8.6L118.6,416.3z"/>
	<path class="st0" d="M190.7,377.9l3.5,1.8l-0.6,1.3c3.6,7.3,8.5,12.4,14.7,15.3l-2.5,3.3c-5.7-2.9-10.4-7.7-13.9-14.5
		c-3.4,6.7-7.5,11.6-12.3,14.6l-2.8-2.9C183.4,392.6,188.1,386.3,190.7,377.9 M168.9,406.4c3.1-2.6,6.7-7.9,10.9-15.8l-3.6-1.6
		c-1.2,2.5-2.4,4.5-3.4,6.1l-5.4,1.1c2-3.5,4.4-8.7,7.4-15.5l-3.5-1.7c-3.2,8.1-6,14.1-8.6,18.3l1.9,3.5c1.7-0.5,3.6-1.1,5.6-1.6
		c-1.4,2.2-3.9,5-7.3,8.5l1.8,3.4c4.5-1.4,9.5-2.8,15.1-4.1v-3.5L168.9,406.4z M183.8,400.8h16.7V397h-16.7V400.8z M182.1,424.8
		L182.1,424.8v-20.2h20.5v20.2h-3.9v-4H186v4H182.1z M186,417.1L186,417.1h12.7v-8.8H186V417.1z M180.5,415.3L180.5,415.3l-15.4,5.5
		l-1.9-3.5l17.4-5.8V415.3z"/>
	<path class="st0" d="M267.9,408c1.9-3.8,3.3-8.3,4.1-13.2l3.3,1.4c-1.3,7.1-3.3,12.7-6.1,16.8c0.7,2.2,1.5,3.9,2.3,5.2
		c0.8,1.2,1.3,1.8,1.5,1.8c0.6,0,1-2.4,1.4-7.1l3.8,1.4c-0.4,2.9-0.9,5.2-1.5,6.7c-0.6,1.6-1.1,2.5-1.6,2.8
		c-0.5,0.3-1.1,0.5-1.8,0.5c-1.1,0-2.3-0.7-3.5-2.1c-1.2-1.4-2.2-3.3-3.1-5.5c-2.2,2.5-4.9,4.9-8.2,7.1l-3.1-2.6
		c4.3-2.7,7.6-5.7,10-8.8c-1.2-4.6-2.1-11.2-2.7-19.9h-9.8v5.8h9.4c-0.1,4.4-0.3,7.9-0.7,10.6c-0.3,2.7-0.6,4.3-0.8,4.9
		c-0.7,1.7-1.9,2.4-3.5,2.4c-1,0-2.4-0.3-4.1-0.9l-0.8-4.3c3.1,1.4,4.7,1.9,4.9,1.3l0.6-4.5c0.3-2.6,0.5-4.5,0.5-5.7h-5.5
		c-0.1,6.2-0.8,11-2,14.2c-1.2,3.3-2.9,6.2-5.1,8.8l-3.4-2.5c4.5-4.9,6.7-11.3,6.7-19.1v-14.7h13.5l-0.2-9.8h3.6l0.2,9.8h10.4v3.7
		h-10.2C266.5,397.1,267,402.3,267.9,408 M266.1,382.9c2.7,0.8,5,2.6,7,5.3l2.7-2.7c-1.7-2.4-4.1-4.1-7-5.2L266.1,382.9z
		 M247.8,409.1v-4l-5.3,2.1v-11.1h4.5v-3.7h-4.5v-10.8h-3.9v10.8h-5.3v3.7h5.3V409c-3.4,1.4-5.7,2.3-7,2.8l3.2,3L247.8,409.1z"/>
	<path class="st0" d="M327.5,384.9l-0.8,0.7h20.1v3.8h-43.6v-3.8h20c-1.4-1.9-3.1-3.3-5.2-4.4l2.9-2.7
		C323.1,379.7,325.3,381.8,327.5,384.9 M337.2,413.8L337.2,413.8v-13.2h-10.4v24.3h-3.9v-24.3h-10v19H309v-22.8h13.9V391h3.9v5.8
		h14.3v17.5c0,3-1.4,4.5-4.1,4.5h-4.6l-1.3-3.9l4.5,0.2C336.7,415.1,337.2,414.6,337.2,413.8"/>
	<path class="st0" d="M411,408h-14.9c-0.5,3.3-1.6,6.1-3.3,8.4c5,2.5,13.5,3.9,25.4,4.3l-2.4,3.9c-11.3-0.6-19.8-2.4-25.5-5.4
		c-4.8,3.4-10.3,5.3-16.5,5.9l-2.3-3.4c5.5-0.9,10.4-2.4,14.9-4.5c-2.5-1.6-5-3.8-7.4-6.5l2.9-2c3,2.6,5.4,4.6,7.5,5.8
		c1.4-1.8,2.4-3.9,2.8-6.5h-13.9v-18.9H393v-3.7H373v-3.7h43.6v3.7h-19.7v3.7H411V408z M396.9,396.7L396.9,396.7h10.5v-3.8h-10.5
		V396.7z M393,392.8L393,392.8h-10.8v3.8H393V392.8z M407.3,404.3L407.3,404.3v-4h-10.6l-0.3,4H407.3z M393,400.4L393,400.4h-10.7v4
		h10.5L393,400.4z"/>
	<path class="st0" d="M480.7,403.9h-13.1c-3.3,3-8.7,6-16.1,9.2l-3-3.2c10.2-3.7,17.4-8.4,21.8-14.3c-7.4,4.3-15.5,7.4-24.4,9.1
		l-2.4-3.4c7.4-1.7,12.7-3.2,15.9-4.6c-1-1.3-2.9-2.7-5.7-4.3l3.6-2.3c2.1,1.2,4,2.8,5.7,5.1c3.7-1.9,7.1-4.4,10.1-7.2h-14
		c-3.2,2.2-6.9,4-11.2,5.7l-3.4-3.2c8.5-2.5,15-6.6,19.7-12.4l3.6,1.9c-0.5,0.8-1.8,2.2-3.7,4.1h14.4v3.4c-2.2,2.8-4.6,5.2-7.2,7.2
		l3,1.6c-0.8,1.4-1.7,2.6-2.7,3.7h13.8v3.4c-2.7,5.2-7,9.6-12.9,13.1c-5.9,3.5-14.7,6.3-26.5,8.3l-2.6-3.5c9.8-1.6,17.4-3.6,22.9-6
		c-1-1.6-2.9-3.3-5.6-5.1l3.7-2.1c2.5,1.8,4.3,3.6,5.2,5.6C475,410.8,478.7,407.5,480.7,403.9"/>
	<path class="st0" d="M554.8,392.4h-3c-0.8,8.3-2.8,14.9-5.8,19.9c2.4,3.5,5.9,6.6,10.6,9.4l-2.8,2.8c-3.7-2.1-7.1-5.1-10.1-8.9
		c-3.1,3.7-7.1,6.7-11.8,9.1l-2.5-3c5.3-2.7,9.3-5.9,12.1-9.5c-1.9-3.1-3.3-6.7-4.2-10.6h-0.1c-1.3,2.9-2.3,5-3.2,6l-3.6-1.7
		c4.8-6.7,7.3-15.5,7.5-26.4l3.7,0.8c0,1.8-0.2,4.6-0.6,8.3h14V392.4z M548,392.4L548,392.4h-7.7l-0.8,3.3c1,5.4,2.4,9.6,4.2,12.9
		C545.9,404.4,547.3,399,548,392.4 M518.4,416.8V401h9.2l0.1,2h4v-20.5h-18v3.7h14.1v11h-13.2V415c0,1.3-0.2,2.3-0.4,2.9
		c-0.3,0.6-1,1.2-2.2,1.8l3.6,2.6l17.5-6.8v-4L518.4,416.8z"/>
	<path class="st0" d="M600.1,402.6h-3.6v-13.5h-15.1v-3.5h21c-0.8-1.3-2.4-2.7-4.9-4.3l2.3-2.4c2.7,1.5,4.9,3.4,6.5,5.6l-1.4,1.1
		h19.7v3.5h-15v13.5h-3.7l0.1-13.5h-6.1V402.6z M584.6,405c4.2-4.3,7.3-8.2,9.4-11.7l-2.8-2.3c-3.1,4.6-6.2,8.3-9.4,11L584.6,405z
		 M612.7,393.6c4.1,3.2,7,6.7,8.8,10.2l3.4-2.2c-1.5-3-4.7-6.4-9.4-10.2L612.7,393.6z M615.1,403.4L615.1,403.4v3.7
		c-3,3.7-5.7,6.4-8,8.1c4.8,2.7,11.1,4.6,19,5.6l-2.3,3.5c-2.9-0.4-5.7-1-8.6-1.8c-2.9-0.8-6.7-2.4-11.3-5
		c-5.8,3.4-12.9,5.7-21.3,6.9l-2.2-3.5c7.9-0.9,14.6-2.8,20-5.7c-2.4-1.6-4.8-4.2-7.5-8.1h-3.7v-3.7H615.1z M610.1,407.2
		L610.1,407.2h-12.5c1.2,1.9,3.3,3.9,6.2,5.9C606.9,410.8,609,408.8,610.1,407.2"/>
	<path class="st1" d="M542.3,242.4h11.1v11.4h9.1v9.4l6.9-1.5v-16.9h11.1v14.5l11.3-2.5v-14.4H603v11.9l11.9-2.6c3,0,8.4,0,11.1,0
		c0,9.6,0,53.4,0,62c0,4-2.7,7.2-7.5,7.2h-7.4l-1.2-10.2h5v-49l-11.9,2.5v57h-11.1v-54.6l-11.3,2.4v61.2l44.4,0.2v10.1h-48
		c-5.1,0-7.5-3-7.5-8.4v-60.8l-7.1,1.5v-9.7h-8.9v64.5l9.1-1.1v9.6l-29.7,4.5v-10.6l9.5-1.1v-65.8h-9.5v-9.5h9.5V242.4z
		 M333.3,239.7L333.3,239.7h12.1l3.4,15.3h-11.1L333.3,239.7z M298.2,280.8L298.2,280.8v-10.9l17.6,8.1v10.3L298.2,280.8z
		 M304.1,300.9L304.1,300.9h11.3l-6.5,40h-12.7L304.1,300.9z M183.3,280.8L183.3,280.8V265c9.6-7.6,13.9-18.1,15.9-24.7h13.1
		c-1.4,5.8-3.8,11.9-7.3,18v46.5h-11.6V273C190.3,275.8,187,278.4,183.3,280.8 M375.4,329.7L375.4,329.7h6.9v-76h-29.1v-10.3h29.1
		h5.7h5.8v90.1c0,4.4-2.1,7.3-6.6,7.3h-10.5L375.4,329.7z M321.1,340.8L321.1,340.8v-90.2h11.4v90.2H321.1z M496.3,296.8
		L496.3,296.8v-5.7h-61.4v5.7H496.3z M496.3,308.4L496.3,308.4v-4.7h-61.4v4.7H496.3z M496.3,320.1L496.3,320.1v-4.8h-61.4v4.8
		H496.3z M496.3,332L496.3,332v-4.9h-61.4v4.9H496.3z M447.8,255.7L447.8,255.7v-6.3h-15.1v6.3H447.8z M484.8,249.5L484.8,249.5v6.3
		h13.5v-6.3H484.8z M474,242.3L474,242.3h11.4h13.5h5.5h5.9v14c0,4.2-2.6,6.7-6.8,6.7h-31.8l-1.2,5.5h44.8v8H469l-1.2,5.5h29.1h5.7
		h5.7v50h7v8.5H417V332h7.1v-50h3.5h7.9h20.6l1.1-5.5H417v-8h41.9l1.2-5.5h-26.8h-6.3h-5.1v-20.7h6.5h4.9h15.1h11.4H474z
		 M473.4,255.7L473.4,255.7v-6.3h-14.2v6.3H473.4z M224.7,307.5L224.7,307.5h11.9v6.1h39.9v10.9h-39.9v16.2h-11.9v-16.2h-39.8v-10.9
		h39.8V307.5z M231.8,240.8L231.8,240.8h11.6v19.9l32.7-11.4l-0.2,13.2l-32.6,11v17.3l32.8,0.1l-2.5,10.7h-34.2
		c-4.2,0-7.7-2.5-7.7-7.1l0-17.3l-12.7,4.3v-12.5l12.7-4.4L231.8,240.8z M298.2,252.1L298.2,252.1v-10.9l17.6,8.1v10.3L298.2,252.1z
		 M339,297.6h12.5v19.7h-13.7v9.7h38.9v-9.7h-13.7v-19.7h12.5v-9.7h-12.5v-15.6h13.7v-9.7h-38.9v9.7h13.7v15.6H339V297.6z"/>
	<path class="st2" d="M71.6,280.1l13.5,23.4c1.3,2.2,4.2,3,6.4,1.7c2.2-1.3,3-4.2,1.7-6.4l-17.6-30.4c-0.9-1.5-2.5-2.4-4.1-2.4
		c-1.6,0-3.2,0.9-4,2.4L50,298.8c-1.3,2.2-0.5,5.1,1.7,6.4c2.3,1.3,5.1,0.5,6.4-1.7L71.6,280.1z M26.1,228.7L26.1,228.7h112.3v63.1
		l-13.5-23.4c-0.9-1.5-2.5-2.4-4.1-2.4c-1.6,0-3.2,0.9-4,2.4l-17.5,30.4c-1.3,2.2-0.5,5.1,1.7,6.4c2.2,1.3,5.1,0.5,6.4-1.7
		l13.5-23.4l13.5,23.4c0.9,1.5,2.4,2.3,4.1,2.3v25.7l-13.5-23.4c-0.9-1.5-2.5-2.3-4.1-2.3c-1.6,0-3.2,0.9-4,2.3l-17.5,30.4
		c-0.4,0.7-0.6,1.6-0.6,2.3h-4.7c0-0.8-0.2-1.6-0.6-2.3l-17.6-30.4c-0.9-1.5-2.5-2.3-4.1-2.3c-1.6,0-3.2,0.9-4,2.3L50,338.6
		c-0.4,0.7-0.6,1.6-0.6,2.3l-23.3,0V228.7z M132.9,340.9l-12.1-21l-12.1,21H132.9z M83.7,340.9l-12.1-21l-12.2,21H83.7z"/>
</g>
</svg>
