<?xml version="1.0" standalone="no"?>
<!DOCTYPE svg PUBLIC "-//W3C//DTD SVG 20010904//EN"
 "http://www.w3.org/TR/2001/REC-SVG-20010904/DTD/svg10.dtd">
<svg version="1.0" xmlns="http://www.w3.org/2000/svg"
 width="467.000000pt" height="177.000000pt" viewBox="0 0 467.000000 177.000000"
 preserveAspectRatio="xMidYMid meet">

<g transform="translate(0.000000,177.000000) scale(0.100000,-0.100000)"
fill="#000000" stroke="none">
<path d="M886 1199 c-109 -26 -216 -114 -264 -217 -24 -50 -27 -69 -27 -162 0
-92 3 -112 26 -160 55 -116 160 -196 289 -220 160 -31 340 63 412 215 36 76
37 105 3 105 -20 0 -26 -7 -34 -37 -15 -55 -75 -138 -123 -171 -172 -118 -404
-59 -495 126 -24 49 -28 69 -28 142 0 73 4 93 28 141 31 64 93 126 159 160 65
34 185 38 261 9 77 -29 155 -105 187 -182 19 -47 28 -58 47 -58 31 0 30 21 -5
95 -32 68 -105 146 -163 175 -85 44 -189 59 -273 39z"/>
<path d="M2456 1075 c-4 -12 -27 -15 -121 -15 -108 0 -115 -1 -115 -20 0 -18
7 -20 59 -20 l59 0 26 -44 c14 -25 26 -47 26 -50 0 -3 -24 -6 -52 -6 -49 0
-55 -3 -75 -33 -21 -31 -23 -44 -23 -180 0 -140 1 -147 20 -147 19 0 20 7 20
141 0 77 5 149 10 160 8 14 21 19 55 19 25 0 45 -3 45 -6 0 -3 -12 -21 -26
-40 l-26 -34 24 0 c18 0 33 12 53 40 27 39 29 40 86 40 56 0 59 -1 86 -40 18
-26 36 -40 51 -40 19 0 21 3 12 19 -5 11 -15 23 -20 26 -6 3 -10 13 -10 21 0
10 14 14 55 14 l56 0 -3 -132 -3 -133 -42 -3 c-38 -3 -43 -6 -43 -28 0 -21 4
-24 39 -24 32 0 44 6 70 35 l31 36 0 144 0 144 -85 3 -84 3 30 48 c31 46 32
47 85 47 47 0 54 2 54 20 0 19 -7 20 -115 20 -94 0 -117 3 -121 15 -4 10 -20
15 -44 15 -24 0 -40 -5 -44 -15z m154 -65 c0 -6 -11 -28 -25 -50 -25 -39 -27
-40 -83 -40 l-57 0 -28 45 c-15 25 -27 48 -27 50 0 3 50 5 110 5 68 0 110 -4
110 -10z"/>
<path d="M1680 1050 c0 -30 -1 -30 -55 -30 -52 0 -55 -1 -55 -25 0 -24 3 -25
55 -25 l56 0 -3 -82 -3 -83 -52 -14 c-46 -12 -53 -17 -53 -39 0 -18 4 -23 16
-18 9 3 33 9 55 12 l39 7 0 -72 0 -71 -45 0 c-41 0 -45 -2 -45 -25 0 -24 2
-25 70 -25 l69 0 3 107 3 107 38 9 c30 7 37 13 37 34 0 21 -3 23 -22 18 -63
-18 -58 -23 -58 59 l0 76 40 0 c36 0 40 3 40 25 0 23 -4 25 -40 25 -38 0 -40
2 -40 30 0 25 -4 30 -25 30 -21 0 -25 -5 -25 -30z"/>
<path d="M2900 1045 c0 -33 -2 -35 -35 -35 -28 0 -35 -4 -35 -20 0 -16 7 -20
35 -20 l35 0 0 -180 0 -180 -35 0 c-31 0 -35 -3 -35 -25 0 -25 1 -25 84 -25
99 0 116 5 116 34 0 19 -4 21 -40 18 l-40 -4 0 181 0 181 30 0 c23 0 30 4 30
20 0 16 -7 20 -30 20 -28 0 -30 3 -30 35 0 31 -3 35 -25 35 -22 0 -25 -4 -25
-35z"/>
<path d="M3060 1045 c0 -19 -4 -35 -10 -35 -5 0 -10 -9 -10 -20 0 -11 5 -20
10 -20 6 0 10 -75 10 -205 l0 -205 180 0 180 0 0 25 0 25 -155 0 -155 0 0 179
c0 197 -2 191 66 191 l34 0 0 -160 0 -160 25 0 25 0 0 165 0 165 34 0 c19 0
41 3 50 6 14 5 16 -11 16 -140 l0 -146 -25 0 c-20 0 -25 -5 -25 -25 0 -34 35
-33 72 2 l28 27 0 168 0 168 -75 -7 c-72 -6 -75 -5 -75 16 0 16 -6 21 -25 21
-20 0 -25 -5 -25 -24 0 -19 -6 -24 -37 -30 -60 -9 -63 -8 -63 24 0 25 -4 30
-25 30 -22 0 -25 -4 -25 -35z"/>
<path d="M3735 1070 c-4 -6 -55 -10 -121 -10 -107 0 -114 -1 -114 -20 0 -20 7
-20 280 -20 273 0 280 0 280 20 0 19 -7 20 -114 20 -66 0 -117 4 -121 10 -3 6
-24 10 -45 10 -21 0 -42 -4 -45 -10z"/>
<path d="M1840 1050 c0 -16 7 -20 36 -20 42 0 42 7 -5 -118 l-31 -83 27 3 c25
3 31 13 63 98 l36 95 74 0 75 0 3 -58 c4 -71 -7 -87 -59 -87 -35 0 -39 -3 -39
-25 0 -22 4 -25 36 -25 23 0 47 9 70 26 l34 26 0 94 0 94 -160 0 c-153 0 -160
-1 -160 -20z"/>
<path d="M797 897 c-48 -84 -87 -157 -87 -162 0 -6 15 -36 34 -69 l33 -58 37
60 c20 33 36 62 36 66 0 3 -18 6 -40 6 -22 0 -40 3 -40 6 0 10 52 94 58 94 4
0 36 -50 70 -110 35 -61 68 -110 72 -110 8 0 70 101 70 114 0 3 -21 6 -46 6
l-45 0 27 50 c15 28 30 50 33 50 4 0 37 -52 75 -116 l68 -116 44 76 c24 41 44
78 44 81 0 10 -163 285 -169 285 -3 0 -23 -32 -44 -70 -21 -39 -41 -70 -45
-70 -4 0 -25 32 -46 70 -22 39 -42 70 -45 70 -4 0 -45 -69 -94 -153z"/>
<path d="M3610 970 l21 -30 -55 0 c-65 0 -59 16 -76 -205 -13 -185 -14 -175
14 -175 22 0 23 4 30 93 3 50 9 125 13 165 l6 72 248 0 249 0 0 25 c0 24 -3
25 -56 25 l-55 0 21 30 21 30 -38 0 c-31 0 -42 -5 -58 -30 -20 -29 -22 -30
-105 -30 -85 0 -86 0 -103 30 -15 25 -24 30 -58 30 l-40 0 21 -30z"/>
<path d="M3820 850 c0 -18 -7 -20 -55 -20 -44 0 -53 3 -49 15 5 12 -2 15 -29
15 -29 0 -41 -7 -61 -33 -15 -19 -26 -37 -26 -40 0 -4 50 -7 111 -7 l110 0 -3
-32 -3 -33 -102 -3 c-94 -2 -103 -4 -103 -22 0 -18 9 -20 103 -22 l102 -3 0
-30 0 -30 -102 -3 c-95 -2 -103 -4 -103 -22 0 -19 8 -20 225 -20 217 0 225 1
225 20 0 18 -8 20 -97 22 l-98 3 0 30 0 30 98 3 c88 2 97 4 97 22 0 18 -9 20
-97 22 l-98 3 -3 33 -3 32 100 0 101 0 0 25 0 25 -100 0 c-93 0 -100 1 -100
20 0 13 -7 20 -20 20 -13 0 -20 -7 -20 -20z"/>
<path d="M1873 767 c-20 -28 -23 -46 -23 -120 l0 -87 129 0 129 0 26 31 c24
28 26 38 26 120 l0 89 -132 0 -133 0 -22 -33z m237 -82 l0 -75 -105 0 -105 0
0 75 0 75 105 0 105 0 0 -75z"/>
<path d="M2382 757 c-30 -30 -32 -38 -32 -100 l0 -67 129 0 129 0 26 31 c20
23 26 41 26 77 0 95 3 92 -129 92 l-117 0 -32 -33z m228 -67 l0 -50 -105 0
-105 0 0 50 0 50 105 0 105 0 0 -50z"/>
</g>
</svg>
