<?xml version="1.0" standalone="no"?>
<!DOCTYPE svg PUBLIC "-//W3C//DTD SVG 20010904//EN"
 "http://www.w3.org/TR/2001/REC-SVG-20010904/DTD/svg10.dtd">
<svg version="1.0" xmlns="http://www.w3.org/2000/svg"
 width="225.000000pt" height="225.000000pt" viewBox="0 0 225.000000 225.000000"
 preserveAspectRatio="xMidYMid meet">

<g transform="translate(0.000000,225.000000) scale(0.100000,-0.100000)"
fill="#000000" stroke="none">
<path d="M962 1768 c-76 -6 -238 -41 -250 -53 -3 -3 25 -113 62 -244 62 -218
70 -239 96 -255 23 -13 37 -15 72 -6 24 5 58 10 76 10 l32 0 0 74 0 75 -37 -5
c-21 -3 -45 -7 -55 -8 -13 -3 -23 21 -52 123 -19 69 -31 130 -27 134 5 5 43
11 86 14 46 4 79 11 81 18 3 7 4 39 2 71 l-3 59 -83 -7z m78 -97 c0 -23 -12
-27 -103 -36 -38 -4 -70 -12 -73 -18 -2 -7 11 -68 30 -137 20 -68 33 -126 31
-128 -16 -17 -36 24 -69 144 -21 77 -39 143 -40 148 -2 14 82 32 212 45 6 0
12 -8 12 -18z m0 -411 c0 -23 0 -23 -84 -38 -47 -9 -62 -9 -78 2 -11 8 -16 16
-11 19 7 4 122 29 166 36 4 0 7 -8 7 -19z"/>
<path d="M1120 1707 l0 -73 53 -3 c67 -2 177 -21 177 -30 0 -12 -68 -242 -73
-247 -3 -3 -39 -1 -81 3 l-76 9 0 -71 0 -72 60 -6 c33 -4 87 -16 121 -27 34
-12 63 -19 66 -16 3 2 36 113 74 246 l69 242 -20 28 c-16 22 -36 32 -102 48
-46 12 -115 24 -153 27 -39 3 -80 8 -92 11 -22 4 -23 2 -23 -69z m173 -38 c56
-9 67 -14 67 -30 0 -22 -6 -22 -81 -10 -30 5 -75 12 -101 16 -39 5 -48 10 -48
26 0 22 4 22 163 -2z m195 5 c6 -10 -13 -92 -59 -252 -38 -130 -68 -238 -69
-239 0 -1 -19 5 -42 13 -24 9 -74 21 -113 28 -58 10 -70 16 -70 32 0 16 6 18
40 16 22 -2 65 -10 96 -18 31 -8 59 -14 61 -14 3 0 33 101 68 225 36 124 68
225 72 225 4 0 11 -7 16 -16z"/>
<path d="M470 1010 c0 -18 -7 -20 -65 -20 l-65 0 0 -100 0 -100 65 0 65 0 0
-40 c0 -38 2 -40 30 -40 28 0 30 2 30 40 l0 40 65 0 65 0 0 88 c0 55 -4 92
-12 100 -7 7 -36 12 -65 12 -46 0 -53 3 -53 20 0 16 -7 20 -30 20 -23 0 -30
-4 -30 -20z m-2 -122 l3 -68 -36 0 -35 0 0 71 0 70 33 -3 32 -3 3 -67z m126
56 c3 -9 6 -33 6 -54 0 -56 -8 -70 -41 -70 l-29 0 0 70 0 70 29 0 c17 0 31 -6
35 -16z"/>
<path d="M772 1005 c-10 -12 -27 -24 -37 -26 -17 -4 -18 -5 -2 -21 11 -10 17
-33 17 -61 0 -43 1 -43 30 -39 28 4 30 7 30 49 0 30 7 55 21 75 23 32 21 40
-16 44 -16 2 -31 -5 -43 -21z"/>
<path d="M1640 919 c0 -60 -4 -109 -9 -109 -13 0 -21 38 -21 103 l0 57 -31 0
-31 0 7 -72 c9 -102 11 -106 51 -114 25 -5 34 -11 32 -23 -2 -12 -17 -17 -56
-19 -36 -2 -52 -7 -49 -15 5 -17 339 -17 344 0 3 8 -13 13 -49 15 -39 2 -54 7
-56 19 -2 12 7 18 32 23 40 8 42 12 51 114 l7 74 -28 -4 c-28 -3 -29 -6 -32
-58 -3 -70 -10 -100 -22 -100 -6 0 -10 43 -10 105 l0 105 -25 0 -25 0 0 -140
c0 -118 -2 -140 -15 -140 -13 0 -15 22 -15 139 l0 139 -25 4 -25 5 0 -108z"/>
<path d="M876 1005 c4 -8 -1 -17 -10 -21 -20 -8 -21 -30 -1 -38 10 -3 13 -14
10 -33 -9 -48 5 -56 99 -57 63 -1 86 2 86 12 0 8 -19 12 -60 12 l-60 0 0 35
c0 33 2 35 35 35 26 0 43 7 62 28 l25 27 -38 3 c-26 2 -42 -2 -50 -12 -16 -22
-34 -20 -34 4 0 16 -7 20 -35 20 -26 0 -33 -3 -29 -15z"/>
<path d="M1193 1008 c-5 -7 -15 -28 -23 -45 -7 -18 -19 -33 -26 -33 -8 0 -14
-4 -14 -10 0 -5 20 -10 45 -10 45 0 46 1 65 46 19 44 21 45 62 42 36 -3 43 -7
51 -33 5 -16 14 -36 20 -42 11 -15 97 -18 97 -3 0 6 -7 10 -15 10 -9 0 -24 20
-35 45 l-19 45 -99 0 c-68 0 -103 -4 -109 -12z"/>
<path d="M1280 834 l0 -95 -27 3 c-27 3 -28 6 -31 66 -3 62 -3 63 -30 59 -26
-3 -27 -7 -30 -68 -4 -87 -1 -89 165 -89 112 0 133 2 133 15 0 12 -13 15 -61
15 l-60 0 3 48 3 47 53 3 c28 2 52 7 52 12 0 5 -24 10 -52 12 -52 3 -53 4 -56
36 -3 28 -7 32 -33 32 l-29 0 0 -96z"/>
<path d="M860 825 c0 -12 -14 -15 -70 -15 -56 0 -70 -3 -70 -15 0 -12 14 -15
70 -15 l70 0 0 -36 c0 -34 1 -35 33 -32 28 3 32 7 35 36 l3 32 65 0 c50 0 64
3 64 15 0 12 -14 15 -65 15 -51 0 -65 3 -65 15 0 10 -11 15 -35 15 -24 0 -35
-5 -35 -15z"/>
</g>
</svg>
