<?xml version="1.0" encoding="utf-8"?>
<!-- Generator: Adobe Illustrator 24.0.0, SVG Export Plug-In . SVG Version: 6.00 Build 0)  -->
<svg version="1.1" id="图层_1" xmlns="http://www.w3.org/2000/svg" xmlns:xlink="http://www.w3.org/1999/xlink" x="0px" y="0px"
	 viewBox="0 0 617 554" style="enable-background:new 0 0 617 554;" xml:space="preserve">
<style type="text/css">
	.st0{fill:#DA251D;}
</style>
<g transform="translate(0.000000,554.000000) scale(0.100000,-0.100000)">
	<path class="st0" d="M403,5315l-23-24V2835V379l25-24l24-25h2459c2234,0,2460,1,2466,16c3,9,6,514,6,1124c0,878-3,1114-13,1138
		c-7,17-26,41-42,54c-26,21-40,23-130,23s-103-2-125-22c-13-13-25-31-26-40c-2-10-10-47-18-83c-9-36-16-80-16-98s-5-43-11-54
		c-7-12-18-49-26-82c-30-133-44-178-69-229c-8-16-14-35-14-42c0-11-48-117-82-180c-6-10-22-40-35-65s-28-49-34-54c-5-6-9-16-9-22
		c0-7-14-28-30-46s-30-38-30-45c0-6-16-29-35-50s-35-42-35-46c0-14-22-38-197-214c-94-95-177-173-185-173c-7,0-29-16-48-35
		s-38-35-44-35c-5,0-25-12-45-28c-20-15-46-33-59-39c-81-43-109-59-125-73c-11-8-24-15-30-15c-11,0-112-46-179-81c-14-8-35-14-45-14
		s-27-6-38-14c-11-7-33-16-50-19c-39-7-108-25-165-43c-25-7-63-15-85-18c-22-2-62-10-90-17c-71-17-564-17-625,0c-25,7-67,15-95,18
		c-27,3-65,11-84,19c-18,8-41,14-51,14c-24,0-119,28-153,46c-16,8-38,14-50,14s-31,7-41,15c-11,8-30,15-42,15s-27,7-34,15
		s-18,15-25,15c-17,0-113,48-120,60c-3,6-15,10-26,10c-10,0-19,5-19,10c0,6-10,15-22,21c-34,15-68,35-81,48c-6,6-17,11-25,11
		c-7,0-29,15-48,32c-19,18-47,40-63,49s-67,50-112,92c-45,43-88,77-96,77c-7,0-13,7-13,15s-7,15-15,15s-15,6-15,13c0,8-35,51-77,97
		c-43,46-84,95-91,109c-6,14-28,43-47,64s-35,44-35,51c0,6-5,17-11,23c-13,13-33,47-48,81c-6,12-15,22-21,22c-5,0-10,7-10,16
		s-9,27-20,41s-20,34-20,43c0,10-7,23-15,30s-15,20-15,30s-7,23-15,30s-15,22-15,34s-7,31-15,42c-8,10-15,29-15,41s-6,34-14,50
		c-18,35-46,129-46,154c0,10-7,36-15,56c-8,21-16,58-19,83c-2,25-10,66-17,90c-18,63-18,567,0,630c7,24,15,65,17,90
		c3,25,11,62,19,83c8,20,15,46,15,56c0,25,28,119,46,154c8,16,14,38,14,50s7,31,15,41c8,11,15,30,15,42s7,27,15,34s15,20,15,30
		s7,23,15,30s15,20,15,30c0,9,9,29,20,43s20,32,20,41s5,16,10,16c6,0,15,10,21,23c15,33,35,67,48,80c6,6,11,17,11,23
		c0,7,16,30,35,51s41,50,47,64c7,14,48,63,91,109c42,46,77,89,77,97c0,7,7,13,15,13s15,7,15,15s6,15,13,15c8,0,51,34,96,77
		c45,42,96,83,112,92s44,31,63,49c19,17,41,32,48,32c8,0,19,5,25,11c13,13,47,33,81,48c12,6,22,15,22,21c0,5,9,10,19,10
		c11,0,23,4,26,10c7,12,103,60,120,60c7,0,18,7,25,15s22,15,34,15s31,7,42,15c10,8,29,15,41,15s34,6,50,14c34,18,129,46,153,46
		c10,0,33,6,51,14c19,8,57,16,84,19c28,3,70,11,95,18c63,17,556,18,625,0c28-7,68-15,90-17c22-3,60-11,85-18c57-18,126-36,165-43
		c17-3,39-12,50-19c11-8,28-14,38-14s31-6,45-14c67-35,168-81,179-81c6,0,19-7,30-15c20-16,33-24,111-65c29-15,52-30,52-34
		s19-17,43-29s56-35,73-51c16-17,35-31,43-31c19,0,343-323,364-363c10-18,33-50,52-70c19-21,35-43,35-48c0-10,10-24,43-60
		c9-10,17-25,17-32s5-18,10-23c18-18,150-285,150-303c0-9,5-22,11-28s14-26,19-44c4-19,14-50,20-69c7-19,16-48,22-65
		c12-36,22-81,43-195c27-147,64-200,152-219c92-19,186,23,214,96c10,27,13,2191,3,2217c-6,15-232,16-2468,15H425L403,5315z"/>
	<path class="st0" d="M2750,4784c-8-2-69-11-135-19s-147-21-180-29c-112-28-167-45-179-55c-6-5-25-12-41-15c-28-5-58-18-127-53
		c-14-7-31-13-38-13c-6,0-18-7-26-15c-9-8-24-15-34-15s-22-5-25-11c-4-5-17-15-28-20c-12-5-35-18-52-29c-16-11-37-23-45-26
		c-8-4-34-22-57-41c-23-18-45-33-50-33c-9,0-105-82-154-132c-15-15-29-25-31-23c-2,3-24-16-48-40c-24-25-41-45-37-45s-5-12-20-28
		c-51-50-133-146-133-155c0-5-16-28-35-51c-19-24-35-46-35-51c0-4-13-24-30-45c-16-21-30-45-30-53s-7-20-15-27s-15-20-15-30
		s-7-23-15-30s-15-21-15-31c0-9-7-24-15-33c-8-8-15-23-15-33c0-11-7-28-15-39c-8-10-15-28-15-39s-6-30-14-41c-14-20-32-78-62-199
		c-63-257-63-643,0-900c30-121,48-179,62-199c8-11,14-30,14-41s7-29,15-39c8-11,15-28,15-39c0-10,7-25,15-33c8-9,15-24,15-33
		c0-10,7-24,15-31s15-20,15-30s7-23,15-30s15-19,15-27s14-32,30-53c17-21,30-41,30-45c0-5,16-27,35-51c19-23,35-46,35-51
		c0-9,82-105,133-155c15-16,24-28,20-28s13-20,37-45c24-24,46-43,48-40c2,2,16-8,31-23c49-50,145-132,154-132c5,0,27-15,50-33
		c23-19,49-37,57-41c8-3,29-15,45-26c17-11,40-24,52-29c11-5,24-15,28-20c3-6,15-11,25-11s25-7,34-15c8-8,20-15,26-15
		c7,0,24-6,38-13c69-35,99-48,127-53c16-3,35-10,41-15c12-10,67-26,179-55c87-22,262-44,400-50c171-8,398,22,601,80
		c29,8,65,21,82,30s37,16,45,16s28,7,43,15c16,8,36,15,45,15s22,7,29,15s20,15,30,15s23,7,30,15s18,15,26,15c7,0,41,17,74,37
		c34,21,81,49,105,63c23,14,57,40,76,57c19,18,39,33,45,33c25,0,347,320,362,360c4,9,20,32,35,51c42,51,97,139,97,155c0,8,4,14,9,14
		c12,0,111,201,111,226c0,11,5,25,11,31c20,20,70,178,95,298c31,150,36,207,36,410s-5,260-36,410c-25,120-75,278-95,298
		c-6,6-11,20-11,31c0,25-99,226-111,226c-5,0-9,6-9,14c0,16-55,104-97,155c-15,19-31,42-35,51c-15,40-337,360-362,360
		c-6,0-26,15-45,33c-19,17-53,43-76,57c-24,14-71,42-105,63c-33,20-67,37-74,37c-8,0-19,7-26,15s-20,15-30,15s-23,7-30,15
		s-20,15-29,15s-29,7-45,15c-15,8-35,15-43,15s-28,7-45,16c-66,34-222,71-398,94C2991,4787,2790,4794,2750,4784z M3085,4569
		c143-19,316-61,392-95c17-8,36-14,42-14s19-4,29-9c60-32,105-51,122-51c10,0,22-4,25-10c3-5,14-10,24-10s26-9,36-20
		c10-12,25-18,32-16c7,3,16,0,20-7c9-13,69-57,78-57c4,0,30-20,58-45c29-25,56-45,61-45c13,0,229-221,244-250c7-14,29-42,47-62
		c19-20,35-43,35-52c0-8,6-19,13-23s23-28,36-53s29-49,37-53s14-16,14-26s7-24,15-31s15-23,15-35c0-13,7-25,15-29c8-3,15-16,15-29
		s7-32,15-43c8-10,15-31,15-46s4-30,10-33c5-3,14-25,20-48s15-51,20-62c6-11,12-37,15-58c2-21,7-42,11-48c12-20,44-292,44-374
		s-32-354-44-374c-4-6-9-27-11-48c-3-21-9-47-15-58c-5-11-14-39-20-62s-15-45-20-48c-6-3-10-18-10-33s-7-36-15-46c-8-11-15-30-15-43
		s-7-26-15-29c-8-4-15-16-15-29c0-12-7-28-15-35s-15-21-15-31s-6-22-14-26s-24-28-37-53s-29-49-36-53s-13-15-13-23c0-9-16-32-35-52
		c-18-20-40-48-47-62c-15-29-231-250-244-250c-5,0-32-20-61-45c-28-25-54-45-58-45c-9,0-69-44-78-57c-4-7-13-10-20-7
		c-7,2-22-4-32-16c-10-11-24-20-32-20s-21-7-29-15c-9-8-24-15-33-15c-10,0-24-7-31-15s-21-15-31-15s-20-4-23-9s-18-12-33-15
		c-16-4-41-13-58-20c-84-38-198-66-380-96c-133-22-559,0-618,32c-10,5-39,13-65,18c-52,9-103,25-144,46c-14,8-33,14-41,14
		c-22,0-160,71-170,87c-4,7-16,13-26,13c-23,0-55,17-102,53c-20,15-39,27-43,27s-26,15-49,34c-23,18-47,35-54,37
		c-22,8-293,279-293,294c0,4-16,27-35,51c-19,23-35,46-35,51s-13,24-30,43c-16,19-29,43-30,52c0,9-4,18-8,20c-12,4-112,210-112,229
		c0,8-7,24-15,35c-8,10-15,27-15,37s-6,30-14,45s-17,45-20,67s-10,51-16,65c-47,125-47,665,0,790c6,14,13,43,16,65s12,52,20,67
		s14,35,14,45s7,27,15,37c8,11,15,27,15,35c0,19,100,225,112,229c4,2,8,11,8,20c1,10,14,33,30,52c17,19,30,38,30,43s16,28,35,51
		c19,24,35,47,35,51c0,15,271,286,293,294c7,2,31,19,54,37c23,19,45,34,49,34s23,12,43,28c49,37,79,52,107,52c13,0,24,4,24,9
		s10,13,23,17c12,4,49,19,82,34c130,60,325,115,485,138C2754,4581,2992,4582,3085,4569z"/>
	<path class="st0" d="M2072,2853l3-1508l760-3l759-2l156,155l155,156l3,427c3,428-2,502-32,502c-7,0-19,8-27,18
		c-50,55-149,142-163,142c-9,0-16,6-16,14c0,7-9,16-20,19c-34,9-26,54,17,90c20,18,45,40,55,50c10,9,23,17,28,17c9,0,33,19,98,78
		c14,12,28,22,32,22c25,0,30,84,30,534c-1,356-4,476-13,493c-7,13-75,86-151,163l-139,140h-769h-768L2072,2853z M3255,3460v-265
		l-259-3c-201-2-261,1-268,10c-13,22-10,502,4,516c9,9,77,12,268,10l255-3V3460z M3320,2490c7-14,10-103,8-266c-3-204-5-246-18-254
		c-16-10-590-14-627-4c-39,11-44,47-41,286c2,172,6,229,17,241c12,15,48,17,332,17C3300,2510,3310,2509,3320,2490z"/>
</g>
</svg>
