<?xml version="1.0" encoding="utf-8"?>
<!-- Generator: Adobe Illustrator 19.2.1, SVG Export Plug-In . SVG Version: 6.00 Build 0)  -->
<svg version="1.1" id="layer" xmlns="http://www.w3.org/2000/svg" xmlns:xlink="http://www.w3.org/1999/xlink" x="0px" y="0px"
	 viewBox="0 0 652 652" style="enable-background:new 0 0 652 652;" xml:space="preserve">
<style type="text/css">
	.st0{fill:#13818C;}
	.st1{fill:#E48C2B;}
	.st2{fill:#E6942B;}
	.st3{fill:#E1BB37;}
	.st4{fill:#EEE771;}
	.st5{fill:#F5F0B8;}
	.st6{fill:#484848;}
	.st7{fill:#FFFFFF;}
	.st8{fill:none;stroke:#484848;stroke-width:1.6028;stroke-miterlimit:10;}
</style>
<path class="st0" d="M91.3,376.8v2.8h-0.2c-0.2-0.7-0.5-1.3-1-1.7c-0.5-0.4-1.1-0.6-1.7-0.6c-0.5,0-1,0.1-1.5,0.5
	c-0.5,0.3-0.8,0.7-1,1.1c-0.3,0.6-0.4,1.3-0.4,2c0,0.7,0.1,1.4,0.3,2c0.2,0.6,0.5,1,0.9,1.3c0.4,0.3,0.9,0.5,1.6,0.5
	c0.5,0,1-0.1,1.5-0.3c0.4-0.2,0.9-0.6,1.4-1.2v0.7c-0.5,0.5-1,0.8-1.5,1c-0.5,0.2-1.1,0.3-1.8,0.3c-0.9,0-1.7-0.2-2.4-0.5
	c-0.7-0.3-1.3-0.8-1.6-1.5c-0.4-0.6-0.6-1.3-0.6-2.1c0-0.8,0.2-1.5,0.7-2.2c0.4-0.7,1-1.2,1.7-1.6c0.7-0.4,1.5-0.6,2.3-0.6
	c0.6,0,1.2,0.1,1.9,0.4c0.4,0.1,0.6,0.2,0.8,0.2l0.3-0.1c0.1-0.1,0.2-0.3,0.2-0.5H91.3"/>
<path class="st0" d="M96.6,376.9c1.4,0,2.5,0.3,3.3,1.1c0.8,0.8,1.3,1.8,1.3,3c0,1-0.3,1.9-1,2.7c-0.8,1-2,1.6-3.5,1.6
	c-1.5,0-2.7-0.5-3.6-1.5c-0.7-0.8-1-1.7-1-2.8c0-1.2,0.4-2.2,1.3-3C94.2,377.2,95.3,376.8,96.6,376.9 M96.6,377.2
	c-0.8,0-1.4,0.4-1.8,1.1c-0.3,0.6-0.5,1.5-0.5,2.7c0,1.4,0.3,2.4,0.8,3c0.3,0.5,0.8,0.7,1.5,0.7c0.4,0,0.8-0.1,1.1-0.3
	c0.4-0.3,0.7-0.7,0.9-1.2c0.2-0.6,0.3-1.3,0.3-2.2c0-1.1-0.1-1.9-0.3-2.4c-0.2-0.5-0.5-0.9-0.8-1.1
	C97.4,377.4,97.1,377.2,96.6,377.2"/>
<path class="st0" d="M101.2,377h4.4v0.2h-0.2c-0.3,0-0.6,0-0.7,0.1l-0.3,0.3c0,0.1-0.1,0.4-0.1,0.9v3.9c0,0.7,0.1,1.2,0.2,1.4
	c0.1,0.2,0.3,0.4,0.6,0.6c0.3,0.2,0.6,0.2,1,0.2c0.5,0,0.9-0.1,1.2-0.3c0.3-0.2,0.6-0.5,0.7-0.8c0.2-0.3,0.2-0.9,0.2-1.8v-3.3
	c0-0.4,0-0.6-0.1-0.8l-0.3-0.3c-0.2-0.1-0.4-0.1-0.8-0.1V377h3v0.2h-0.2c-0.3,0-0.4,0-0.6,0.1l-0.3,0.4c-0.1,0.1-0.1,0.4-0.1,0.7v3
	c0,1-0.1,1.6-0.2,2.1c-0.1,0.4-0.5,0.8-1,1.1c-0.5,0.4-1.2,0.5-2.1,0.5c-0.7,0-1.3-0.1-1.7-0.3c-0.5-0.3-0.9-0.6-1.2-1
	c-0.2-0.4-0.3-0.9-0.3-1.6v-3.9c0-0.5,0-0.8-0.1-0.9l-0.3-0.3c-0.1-0.1-0.4-0.1-0.7-0.1V377"/>
<path class="st0" d="M113.4,377l4.2,5v-3.5c0-0.5-0.1-0.8-0.2-1c-0.2-0.2-0.5-0.3-1-0.3V377h2.8v0.2c-0.4,0-0.6,0.1-0.7,0.2
	l-0.3,0.3c-0.1,0.2-0.1,0.4-0.1,0.8v6.7h-0.2l-5.8-6.7v5.1c0,0.5,0.1,0.8,0.3,1c0.2,0.2,0.5,0.2,0.8,0.2h0.2v0.2h-3v-0.2
	c0.5,0,0.8-0.1,1-0.3c0.2-0.2,0.3-0.5,0.3-0.9v-5.7l-0.2-0.2c-0.2-0.2-0.3-0.4-0.5-0.4c-0.1-0.1-0.3-0.1-0.6-0.1V377H113.4"/>
<path class="st0" d="M127.3,377v2.2h-0.2c-0.1-0.5-0.3-0.9-0.4-1.1c-0.2-0.2-0.4-0.4-0.7-0.5c-0.2-0.1-0.5-0.1-0.8-0.1h-0.6v6.2
	c0,0.4,0,0.7,0.1,0.8l0.3,0.3c0.1,0.1,0.3,0.1,0.6,0.1h0.3v0.2h-4.5v-0.2h0.3c0.3,0,0.4,0,0.6-0.1l0.3-0.3c0-0.1,0.1-0.3,0.1-0.8
	v-6.2h-0.7c-0.6,0-1,0.1-1.3,0.3c-0.4,0.3-0.6,0.8-0.7,1.4h-0.2V377H127.3"/>
<path class="st0" d="M131.1,381.3v2.3c0,0.4,0,0.7,0.1,0.8l0.3,0.3c0.1,0.1,0.4,0.1,0.8,0.1v0.2h-4.4v-0.2c0.4,0,0.7,0,0.8-0.1
	l0.3-0.3c0.1-0.1,0.1-0.4,0.1-0.8v-5.3c0-0.4,0-0.7-0.1-0.8l-0.3-0.3c-0.1-0.1-0.4-0.1-0.8-0.1V377h4c1,0,1.8,0.1,2.3,0.2
	c0.5,0.1,0.9,0.4,1.2,0.7c0.3,0.4,0.5,0.8,0.5,1.3c0,0.6-0.2,1.1-0.7,1.5c-0.3,0.2-0.7,0.4-1.2,0.5l2.1,2.7c0.3,0.4,0.5,0.6,0.6,0.7
	c0.2,0.1,0.4,0.2,0.6,0.2v0.2h-2.7l-2.8-3.7H131.1 M131.1,377.4v3.5h0.4c0.6,0,1,0,1.3-0.1c0.3-0.1,0.5-0.3,0.7-0.5
	c0.2-0.3,0.3-0.6,0.3-1c0-0.6-0.1-1.1-0.5-1.4c-0.3-0.3-0.8-0.4-1.5-0.4H131.1z"/>
<path class="st0" d="M144.7,377v0.2c-0.3,0-0.5,0.1-0.7,0.2c-0.2,0.2-0.5,0.6-1,1.4l-1.9,2.9v1.9c0,0.4,0,0.7,0.1,0.8l0.3,0.3
	c0.1,0.1,0.3,0.1,0.5,0.1h0.5v0.2h-4.8v-0.2h0.4c0.2,0,0.4,0,0.6-0.1l0.3-0.3c0-0.1,0.1-0.3,0.1-0.8V382l-2-3.5
	c-0.4-0.7-0.7-1.1-0.8-1.2c-0.2-0.1-0.4-0.2-0.7-0.2V377h4.1v0.2h-0.2c-0.2,0-0.4,0-0.5,0.1l-0.2,0.2c0,0.1,0.2,0.5,0.5,1.1l1.5,2.7
	l1.6-2.4c0.4-0.6,0.6-1,0.6-1.2l-0.2-0.3c-0.1-0.1-0.4-0.2-0.8-0.2V377H144.7"/>
<path class="st0" d="M66.3,389.8v4.9H66c-0.5-1.3-1.2-2.4-2.2-3.1c-1-0.7-2.1-1.1-3.2-1.1c-1.1,0-2,0.3-2.8,0.9
	c-0.8,0.6-1.3,1.4-1.6,2.5c-0.3,1.1-0.5,2.1-0.5,3.3c0,1.3,0.2,2.5,0.5,3.5c0.3,1,0.9,1.7,1.6,2.2c0.8,0.5,1.6,0.7,2.7,0.7
	c0.4,0,0.7,0,1.1-0.1c0.4-0.1,0.8-0.2,1.2-0.3v-2.9c0-0.6,0-0.9-0.1-1.1c-0.1-0.2-0.3-0.3-0.5-0.4c-0.3-0.1-0.6-0.2-0.9-0.2h-0.4
	v-0.3h7.3v0.3c-0.6,0-0.9,0.1-1.2,0.2c-0.2,0.1-0.4,0.3-0.5,0.5c-0.1,0.2-0.1,0.5-0.1,1v2.9c-1,0.4-1.9,0.7-3,0.9
	c-1,0.2-2.1,0.3-3.2,0.3c-1.4,0-2.6-0.2-3.5-0.5c-0.9-0.4-1.8-0.8-2.5-1.4c-0.7-0.6-1.3-1.2-1.7-2c-0.5-1-0.8-2-0.8-3.2
	c0-2.1,0.8-3.9,2.4-5.4c1.6-1.4,3.6-2.2,5.9-2.2c0.7,0,1.4,0.1,2,0.2c0.3,0.1,0.8,0.2,1.6,0.5c0.7,0.3,1.2,0.4,1.3,0.4
	c0.2,0,0.4-0.1,0.6-0.2c0.2-0.1,0.3-0.4,0.5-0.8H66.3"/>
<path class="st0" d="M76.4,399.9h-5.2l-0.6,1.5c-0.2,0.5-0.3,0.9-0.3,1.2c0,0.4,0.2,0.7,0.5,0.9c0.2,0.1,0.7,0.2,1.5,0.3v0.4h-5
	v-0.4c0.5-0.1,1-0.3,1.3-0.7c0.4-0.4,0.8-1.1,1.3-2.3l5-11.3h0.8l5.1,11.6c0.5,1.2,0.9,1.9,1.3,2.2c0.3,0.2,0.6,0.4,1.1,0.4v0.4
	h-7.2v-0.4h0.3c0.6,0,1-0.1,1.2-0.2c0.2-0.1,0.2-0.3,0.2-0.5l-0.1-0.4c0-0.1-0.1-0.3-0.3-0.9L76.4,399.9 M76.1,399.1l-2.2-5.2
	l-2.3,5.2H76.1z"/>
<path class="st0" d="M88.8,397.8v3.9c0,0.8,0,1.2,0.1,1.4c0.1,0.2,0.3,0.4,0.5,0.5c0.3,0.1,0.7,0.2,1.4,0.2v0.4h-7.7v-0.4
	c0.7,0,1.2-0.1,1.4-0.2c0.3-0.1,0.4-0.3,0.5-0.5c0.1-0.2,0.1-0.7,0.1-1.4v-9.2c0-0.8,0-1.2-0.1-1.4c-0.1-0.2-0.3-0.3-0.5-0.5
	c-0.3-0.1-0.7-0.2-1.4-0.2v-0.4h6.9c1.8,0,3.1,0.1,4,0.4c0.8,0.2,1.5,0.7,2,1.3c0.5,0.6,0.8,1.4,0.8,2.2c0,1-0.4,1.9-1.2,2.6
	c-0.5,0.4-1.2,0.8-2.1,1l3.6,4.8c0.5,0.6,0.8,1,1,1.1c0.3,0.2,0.7,0.3,1.1,0.4v0.4h-4.7l-4.8-6.4H88.8 M88.8,390.9v6.1h0.6
	c1,0,1.8-0.1,2.3-0.3c0.5-0.2,0.9-0.5,1.2-0.9c0.3-0.4,0.4-1.1,0.4-1.8c0-1.1-0.3-1.8-0.8-2.4c-0.5-0.5-1.4-0.8-2.6-0.8H88.8z"/>
<path class="st0" d="M99.6,404.2v-0.4h0.5c0.4,0,0.8-0.1,1-0.2c0.2-0.1,0.4-0.3,0.5-0.5c0.1-0.1,0.1-0.6,0.1-1.3v-9.3
	c0-0.7,0-1.2-0.1-1.4c-0.1-0.2-0.2-0.3-0.5-0.5c-0.2-0.1-0.6-0.2-1-0.2h-0.5v-0.4h6.7c1.8,0,3.2,0.2,4.3,0.7c1.3,0.5,2.3,1.4,3,2.5
	c0.7,1.1,1,2.4,1,3.8c0,1-0.2,1.9-0.5,2.7c-0.3,0.8-0.8,1.5-1.3,2.1c-0.5,0.5-1.1,1-1.9,1.3c-0.7,0.3-1.5,0.6-2.6,0.8
	c-0.5,0.1-1.1,0.1-2.1,0.1H99.6 M105.3,390.9v10.9c0,0.6,0,0.9,0.1,1.1l0.3,0.3c0.2,0.1,0.5,0.2,0.9,0.2c1.2,0,2.1-0.4,2.8-1.2
	c0.9-1.1,1.3-2.7,1.3-4.9c0-1.8-0.3-3.2-0.9-4.3c-0.5-0.8-1.1-1.4-1.8-1.7C107.4,391,106.5,390.9,105.3,390.9"/>
<path class="st0" d="M120.6,390.9v5.7h0.3c1,0,1.7-0.3,2.1-0.8c0.4-0.6,0.7-1.4,0.8-2.5h0.4v7.4h-0.4c-0.1-0.8-0.3-1.5-0.6-2
	c-0.3-0.5-0.6-0.9-1-1c-0.4-0.2-0.9-0.3-1.6-0.3v4c0,0.8,0,1.2,0.1,1.4l0.4,0.4c0.2,0.1,0.5,0.2,0.9,0.2h0.9c1.4,0,2.5-0.3,3.3-0.9
	c0.8-0.6,1.4-1.5,1.8-2.8h0.4l-0.7,4.4H115v-0.3h0.5c0.4,0,0.8-0.1,1-0.2c0.2-0.1,0.3-0.3,0.4-0.5c0.1-0.2,0.1-0.6,0.1-1.3v-9.3
	c0-0.6,0-1-0.1-1.2c-0.1-0.2-0.2-0.4-0.4-0.6c-0.3-0.2-0.7-0.3-1.1-0.3H115v-0.4h12.4v4.1H127c-0.2-1-0.5-1.7-0.9-2.2
	c-0.4-0.4-0.9-0.8-1.7-1c-0.4-0.1-1.2-0.2-2.3-0.2H120.6"/>
<path class="st0" d="M134.4,390.1l7.4,8.7v-6c0-0.9-0.1-1.4-0.4-1.7c-0.4-0.4-0.9-0.6-1.8-0.6v-0.4h4.9v0.4c-0.6,0.1-1,0.2-1.3,0.3
	c-0.2,0.1-0.4,0.3-0.5,0.6c-0.1,0.3-0.2,0.7-0.2,1.4v11.7h-0.4l-10.1-11.7v8.9c0,0.8,0.2,1.4,0.6,1.7c0.4,0.3,0.9,0.4,1.4,0.4h0.4
	v0.3h-5.3v-0.3c0.8,0,1.4-0.2,1.7-0.5c0.3-0.3,0.5-0.8,0.5-1.6v-9.9l-0.3-0.4c-0.3-0.4-0.6-0.6-0.8-0.7c-0.2-0.1-0.6-0.2-1-0.2v-0.4
	H134.4"/>
<path class="st0" d="M191.4,395.3l0.1-0.2c0.2-0.3,0.1-0.8-0.1-1.2c-0.5-1-1.5-2-2-2.2c0-1.3,0.3-2.3,0.3-3.6
	c0.5-0.2,1.1-0.2,1.6-0.3c0.4-0.2,0.7-0.4,1-1c0.7-0.7-0.1-1.8-1-2.5c-0.4-0.3-0.9-0.5-1.3-0.5l-0.3,0.1c0-0.8,0.3-1.8,0.2-2.4
	c0.6-1.9-1.4-4.6-2.7-4.6h-0.6c-0.6,1-0.3,2.7-0.3,4l0,2.4c0,0.3,0.3,1,0,1.3c-0.3,1-4,1-4.9,1.3c-1,1.7,1.7,4,3,4
	c0.7,0.3,1-0.3,1.7-0.3c-0.3,1.6-1.6,3-2.6,4l-2.9,3.9c-0.3,0.3-0.6,0.7-1,1.3l-0.1,0.6c0.3,0.4,1.1,0.4,1.1,0.4
	c0.7,0,1.3-1.3,1.9-2l3.6-3c1.1,3.6-1.6,6.5,0.5,9.6c0.3,0.3,0.7,0.7,0.9,0.7h0.3c0.7-1,1.3-4,1.2-6l-0.4-2.7l0.3-2.3h0.3
	c0,0.7,0.7,1,1.4,1.3C191,395.4,191.3,395.4,191.4,395.3"/>
<path class="st0" d="M235,380.7c-0.3-1.2-2.1-3.5-3-3.8c-0.6,0-0.6,0.3-1,0.3l-2.3,0.2c-1.3,0.2-2.8,0.3-4.1,0.6l-2.5,0.3
	c-1.9,0.3-3.3,0.9-5.2,0.9c-0.2,0-0.4,0.3-0.5,0.5c-0.5,1.1,0.5,2,1.3,2.6c0.8,0.6,0.9,0.6,2,0.3c0.9-0.2,1.6-0.6,2.5-0.8
	c0.1,0.2,0.1,0.5,0,0.7c-0.3,1-2.9,0.5-3.2,1.2c-0.3,0.9,0.8,1.9,1.8,2.3c0.3,0,1.2-0.5,1.8-0.7c0.1,0.4,0.1,0.7,0,1
	c-1.9,0.8-5.2,0.6-5.7,1.4c-0.3,0.9,0.9,2,1.5,2.2c0.9,0.3,1.8,0.1,2.8-0.3c-0.5,0.9-1,1.2-1.3,1.8c0,1,1.3,1.5,1.9,1.8
	c-0.3,0.6-1,1.5-1.6,1.8c-0.9,1.2-2.8,2.4-3.4,3.7c0.3,0.3,0.3,1,0.6,1c1-0.3,1-0.9,1.9-1.6l1.2-0.6c0.6-0.6,1.3-1.2,1.9-1.5
	c0,0.6,0,3.2-0.3,3.8c-0.6,0.6-4.8,0.5-5.7,0.5c-0.3-0.3,0-1.2,0-1.6c0.3-1,0.3-2.6,0.3-3.8l-0.2-6.7l0.7-4.1
	c0.3-1.6-1.3-5.1-2.6-4.8c-2.2,0.6-0.6,5.4-0.7,7.6c-0.2,3.2,0.2,7.3,0,10.5c-0.3,3.2-0.6,6,2,7.4c1,0,0.6-1,0.6-1.6
	c0.2,0,0.5,0.3,1.4,0.5c0.2,0,0.4,0,0.4,0c0.6-0.3,1.4-0.7,2.1-0.8c1.6-0.3,3.2-0.6,4.8-0.6l5.4,0.3c0.4,1.6-0.1,3.8,1.8,3.7
	c0.6-0.7,1.5-1.3,2.1-2.3c0.5-1.3,0.6-2.6,0.6-3.8c0-4.5,0.1-9.5-0.2-13.7C234.5,384.7,235.3,382.3,235,380.7 M224,388.7l1-0.3
	l1.1-0.2l-0.9,1.1l-0.1,0.1l-1.2,1.4c0,0-1-0.1-1.1-0.3C222.8,390.2,223.5,389.5,224,388.7 M226.8,399.3l-1.9,0l0-2.6l0.3,0.3
	l0.6,0.7l0.3,0.2l0.6,0.5l0.9,1L226.8,399.3z M230.9,399.5l-1.3-0.2l-0.7-1.6c-0.1-0.4-0.3-0.7-0.5-1c-0.3-0.4-0.8-0.7-1.4-0.8
	l-0.3-0.1c0.2-0.2,1.1-0.4,1.6-0.5c0.3,0,0.6-0.1,0.8-0.2c1.2-0.9,0.1-3-0.8-3.8l-0.1-0.1c-1,0.6-1,1.3-1.6,1.9l-0.2,0.3l-0.5,0.7
	l-1.2,0.9h-0.1v-0.3c-0.1-0.3,0-0.8,0-1c0-0.2,0.2-0.4,0.3-0.6l0.3-0.4c0.2-0.2,0.4-0.4,0.6-0.6c0.1-0.1,0.4-0.2,0.6-0.4
	c1-0.9,1.9-1.8,0.6-3.8c0.3-0.1,0.7-0.1,1.1-0.1c1,0.1,2,0.2,2.6-0.2C231,391.1,231.3,396.6,230.9,399.5 M231,387
	c-0.5-1.1-0.6-2.3-2.1-2.3l-0.6,0.3l-0.7,0.2c-0.3,0.1-0.8,0.2-1,0.3l-0.7,0.1c-0.3,0-0.4,0.1-0.7,0.1l0-0.9
	c0.2-0.1,0.4-0.2,0.6-0.2c0.8-0.2,1.8-0.3,2.4-0.4c0.5-0.1,0.5,0.1,0.6-0.4c0.1-0.5-0.2-1.3-0.5-1.8c-0.2-0.3-0.4-0.5-0.8-0.5
	c0,0-0.7,0.1-1.1,0.1c-0.4,0.1-0.6,0.2-0.9,0.2c-0.3,0-0.3,0-0.3-0.3c0-0.3,0.4-0.4,0.6-0.5c0.2-0.1,0.4-0.1,0.7-0.1
	c0.5,0,1.8-0.2,2.3-0.2c0.6,0,1.3,0,1.5,0.3C231.1,381.6,231,387,231,387"/>
<path class="st0" d="M204.3,399.2c-0.6-0.2-1.3,0.2-2,0.5l-2.5,0.2c0-1-0.1-1.8,0.1-2.4c0.8-0.2,3.4-0.2,3.7-1.2
	c1-1.9-2-2.9-3.6-2.3c0,0,0-1,0-1.3c0-0.9-0.2-1.3-1.4-2h1.3l3.5-0.3c0.3,0,1.3,0.3,1.7,0c1.3-1-0.7-2.9-1.5-3.1
	c-1.3-0.3-2.5-0.1-3.8,0.2l0.1-2.6c0.3-0.5,3-0.7,4.3-0.7c0.7-2.9-1.8-4.1-4.1-3.3c0-1.6-1.4-5.5-3.1-4.6c-1.3,1,0.1,3.9-0.2,5.2
	c-0.7,0.7-3.3-0.3-4,0.7c-0.6,1,1,3,1.7,3.3h2l0,2.3c-1,0.3-2.3,0.6-3.7,0.6c-0.3,0.3-0.9,0-1.3,0.3c-1.3,0.6,1.3,3.2,2,3.2
	c0.7,0.3,2-1,3-1c-0.3,1,0,2.3,0.1,3.3c-1,0.3-2.7,0-3.3,0.3c-0.7,0.3-0.6,1.6,0,1.9c0.7,1.3,1.3,1.3,3,1.3l0,2.3
	c-1.6,0.5-3.5,0.4-5,0.7c-0.3,0.1-0.7,0.2-0.9,0.3c-0.7,1-0.2,2.5,1,3.1c0.4,0.2,0.8,0.3,1.3,0.2l1.3-0.7c2.3-0.7,4.6-0.7,7.1-0.8
	c1.4,0,4.6,0.7,5.2,0C208.1,401.9,205.3,399.5,204.3,399.2"/>
<path class="st0" d="M172.2,378.2c-0.7,0-1.3,0.7-1.9,1l-1.4,0c0.1-0.3,0.3-0.5,0.7-0.8c0,0,0.6-0.9,0.9-0.9
	c0.3-0.7-0.2-1.5-0.9-2.1c-0.4-0.3-0.4-0.3-0.7-0.3l-1.1,0c-0.6,1.3-0.9,3.5-2.2,4.5l-1.3,0.4c0-0.3,0.3-0.7,0.3-1
	c-0.4-0.6-0.4-1.3-0.8-1.6l-0.2-0.2c-0.7-0.5-1.4-1-2-0.7l-2.7,0.7c-1,0.3-3.9,0.4-4.1,1.1c-0.6,1.6,0.8,3.2,2.6,3.1
	c0.8,1.9-1.3,1.9-2.7,2.3c-0.6,1.6,1.5,2.8,3.3,3.1c0,0,0,0.6-0.3,0.9c-0.3,1-4.2-0.2-4.1,2c0,1,1.9,2.8,2.9,2.8
	c0.7,0,1.4-1,1.7-1.3l3-1.4l2.1-1c0.3,0,0.3-0.3,0.3-0.6l-1.1-0.9c-0.4-0.3-0.7,0-1.4,0c-0.1-1.9,1.3-1.8,2.7-2.5h0.2
	c0.2,0,0.2-0.1,0.2-0.3l0-0.6l-0.2-0.4c-0.3-0.7-0.7-1.2-1.3-1.5l-1.1,0c-0.4-0.6-0.4-0.9-0.1-1.2l1.4-0.1l0.9-0.3l0.2-0.1l0.4,0
	c-0.3,1,0.1,1.6,0.1,2.5c0,0.6,0.4,1.3,0.5,1.9l0.2,3.4c0.4,0.6,0.5,1.3,1.2,2c-0.3,0.3-1.3,0.6-2,0.7l-0.2,0
	c-2.8,0.6-7.4,0.5-5.4,3.1l1.1,0.4c-0.2,0.5-1.4,1.6-1.8,2c-1,1.2-1.7,2.1-2.9,3.2c-0.7,0.7-2,1.5-2.2,2.1c-0.2,0.7,0.4,1.1,0.6,1.2
	l0.9-0.1c0.7-0.4,3.8-2.9,4.3-3.7l0.1-0.2c0.1,1.6,1.4,7,3.1,7.2c0.3-0.7,0.3-1.6,0.6-1.9l2.3-0.4l0.2,0l1.4-0.3
	c0.8-0.3,2.5,0.2,3.7,0.3c0.3,0,0.6,0,0.8-0.1c1-0.3-0.1-1.3,0.2-2.3l1.6-2.9c0.3-1.3-1.2-2.9-2.2-3.8l-0.7-0.6l-0.1-0.1
	c-1-0.2-1.3,0.4-1.9,0.8c-0.7,0-2.1,0.4-3.1,0.7l-2.3,0c0-0.3,0.5-0.6,0.8-1.1c0.1-0.2,0.2-0.4,0.5-0.4l1.3-0.6
	c1.4-0.4,3.5-0.1,4.9-0.6c0.3-0.1,0.4-0.6,0.5-0.8l-0.1-0.6c-0.3-0.3-0.6-0.6-0.9-0.9c-0.3-0.2-0.7-0.4-1-0.5
	c0.2-0.2,0.8,0.1,1.1-0.1l0.5-0.3c0,0.6,0.7,1.5,1.4,1.5c1.4,0,2.7-2.3,3-3.6l-0.1-2.1l0.9-2.6C175.4,381,173.7,378.8,172.2,378.2
	 M163.4,398.9l1.2-0.3l0.2-0.1l1.7-0.4l1.4-0.1c-0.3,1.9-1.3,2.3-3,2.6l-3.2,0.1c-0.4-0.6-0.4-1.5-0.5-2.2
	C161.9,398.6,162.3,399.3,163.4,398.9 M170.1,387.4c-0.2,0-0.5,0.1-0.8,0.2c-0.4,0.1-1,0.2-1.2,0.3l-0.5-1.5l1.9-0.1l0.7-0.3l0.3,0
	C170.9,385.9,170.5,387.1,170.1,387.4 M171,385l-0.3,0c0-0.3-0.4-1-0.8-1.3c-0.3-0.2-0.5-0.4-0.8-0.4c-0.2,0-0.3,0-0.6,0.1l-1.4,0.3
	c-0.4-0.6-0.4-1.6-0.1-2.2c0.7,0.3,0.6,0.8,1.3,1.1c0.1,0.2,0.4,0.2,0.6,0.2c0.3-0.1,0.6-0.2,0.8-0.2c0.4-0.3,0.9-0.5,1.5-0.5
	C170.9,383,171.3,384.3,171,385"/>
<path class="st0" d="M59.6,294.2c0,0,13.1-6.8,14.1-2.3c0.4,1.9-0.5,7.2-11.2,15.7c-22.8,17.9-29.6,33.9-29.6,33.9s-2.3-1.7-4.6,1.6
	c-2.5,3.5-4.6,23.8,10.2,30.8c18.5,9.7,63.6-7.3,77.1-18.1c0,0-52.8,21.8-51,10.7c0.4-2.1,1.6-4.1,5.1-6.1c6-2.5,15.5-7.7,24.4-15.8
	c16.2-14.8,23.3-25.6,23.3-25.6s-36.8,38.1-62.1,39.6c-15.3,0.2-15.8-11.5-10.7-21.2c10.4-19.3,29.1-30.6,34.1-41.2
	c4-8.6-4.1-9.7-6.3-9C66.1,289,59.6,294.2,59.6,294.2"/>
<path class="st1" d="M63.5,289.4c0,0,23.7-14.2,8.9-19.5c6.8-0.3,10.8,2.9,7.3,8.8C76.1,284.7,63.5,289.4,63.5,289.4"/>
<path class="st2" d="M224.6,284.1c2.5-2.3,2.7-1.1,5.8-4.3c3.8-3.9,7.9-12.1,5.1-15.9c-0.8,0.8-1.9,1.3-2.9,2.1
	c-0.4-1.7-2.4-3.2-5.7-4.1c-3.8-0.7-6.8-0.8-11-0.7c-1.3-0.6-4-1.3-10.7-0.3c-1.9,0.3-4.4,0.7-7.3,1.4l-0.5,0.1
	c-0.5,0.1-0.9,0.2-1.4,0.3c-0.4,0.1-0.9,0.2-1.4,0.4c-0.3,0.1-0.6,0.2-0.9,0.2c-0.8,0.2-1.7,0.5-2.6,0.8c-0.2,0.1-0.4,0.1-0.7,0.2
	c-0.8,0.2-1.6,0.5-2.4,0.8c-0.2,0.1-0.5,0.1-0.7,0.2c-1,0.3-2,0.7-3.1,1.1l-0.1,0.1c-0.2,0.1-0.4,0.2-0.6,0.2
	c-4.2,1.6-8.8,3.5-13.9,5.9c8.2-3.7,15.5-6.1,20.4-7.3c1.9-0.4,3.7-0.8,4.8-0.9l0.4,0c2.4-0.2,2.7,0.1,3.2,0.4
	c-5,1-12.9,3.2-21.5,6.8c-8.6,3.5-17.2,8.1-22.5,11.3c8.8-5,12.9-6.6,14.3-7c-20.6,9.3-37.4,21.6-47.8,30.9
	c11.2-9.9,24.1-17.5,30.3-20.4c-13.1,7.8-22.4,15.2-29.7,21.9c-0.8,0.7-2.1,2.1-2.9,2.8c-4.6,4.2-8.7,8.4-11.4,11
	c1.3-1.2,1.8-1.2,3.4-2.6c4.4-4.5,13.4-13,17.2-15.3c-10,7.9-17.9,17.1-21.2,23.5c5.6-9,14-15.2,18.1-17.9c-4.4,4.2-7.9,8.2-10.7,12
	c1-1.2,2-2.3,2.4-2.8l1.8-1.7c-2.8,3.3-5,6.3-6.3,9c-1.7,3.6-2,6.5-1.1,8c-0.3-3.1,2.2-7.7,6.2-12.8c-2.9,4.5-3.1,7.3-1.6,7.1
	c1-2.2,2.7-4.6,5-7.2c-0.1,0.3-0.2,0.5-0.4,0.7c-3.3,5.7-4.8,11.6-1.4,13.8c-2-2.5-0.4-7.7,2.6-11.8c1.7-2.7,4.8-6.8,8.3-10.7
	c-3.8,4.8-4.7,8-3.4,8.1c2.9-4.7,8.1-10.7,12.1-14.7c1.5-1.6,1.6-1.6,0.6-0.3c-3.5,3.9-6.8,8.5-6.2,9.5c0.8,0.2-0.2,3,1.3,2.2
	c-0.2-2.1,6-8.7,11.5-14.2l0.2-0.1c0.2,0.1,0.7,0.1,1,0.2c-1.9,1.8-1.6,1.7-2.1,2.4c1.8-1.8,4-3.8,6.2-5.6
	c-4.2,4.3-7.9,8.9-11.3,14.2c0.2-0.3,0.4-0.6,0.7-0.9c5.6-7.4,20.6-19.6,20.8-19.6c0.5,0.1,1.4-0.2,1.4,0.1
	c-0.4,0.6-2.9,2.5-3.1,3.1c-0.2,0.2,1.4-0.9,1.7-1.2c2-1.8,3.6-3,5.7-4.3c-1.9,1.4-0.3,1.6-0.9,2.5c-0.2,0.2-0.1,0.3-0.4,0.4
	c0.5-0.1,0.7-0.3,1-0.4c0.3-0.2,0.6-0.5,0.9-0.7c1.1-0.7,4.9-1.6,7.9-2.6c0.3-0.2,0.6-0.3,0.8-0.4c-0.6,0.6-1.1,1.1-1.7,1.8
	c0.7,0,2.4,0,3.1-0.2c-1,0.9-2.2,1.8-3.5,2.7c5-0.5,6.3-1.5,8.9-2.6c-0.8,0.5-1.6,1.1-2.3,1.6c0,0.3,0.8,0.3,1.1,0.1l0.7-0.2
	c-1.1,0.6-2.3,1.4-3.4,2.2c-0.4,0.3,0,1.4,0.8,1.4c1.1-0.2,3-1.6,4.6-2.1l0.4-0.2l-0.6,0.5c-1.3,1.1-3,2.8-5.2,4.8
	c-2.2,1.8-4,2.4-5.4,2.9c0.9,0.3-0.3,2.5,0.8,2.6c-4.2,1.9-10.8,6.7-23.9,16.6c4.5-2.8,9-5.8,11.5-7c1.8-1,2.8-1.3,3.8-1.7
	c-5.4,4-13.8,10.1-18.3,13.5c-1.6,0.9-2.4,1.6-6.8,4.3c-1,0.6-2,1.2-3.1,1.7c-1,0.5-2.3,1.3-3.8,1.9c1.2-0.3,1.8-0.6,2.2-0.6
	c0.9,0,1.8-0.3,2.6-0.6c0.8-0.3,1.9-0.9,3.1-1.5l-0.9,0.6c-2.2,1.4-5.3,3.3-7.7,4.8c-0.8,0.5-1.9,0.9-2.7,1.4
	c-6.5,3.7-13.3,6.6-13.8,6.4c-0.4,0.6,2.1-0.5,4.8-1.6c3.5-1.6,6.9-3.2,10.9-5.1c-3.2,1.9-6.5,3.8-9.6,5.4c-0.4,0.2-0.6,0.3-0.7,0.4
	c0.3-0.1,0.7-0.2,1.1-0.3c-7.2,3.8-15.1,7.9-21.6,10.6c11.4-4.8,18.4-7.8,22-8.8c-5.6,3-11.3,5.9-16.8,8.4c1.7-0.7,3.2-1.4,3.9-1.8
	c0.8-0.3,1.5-0.6,2.3-0.9c-4.7,2.3-9.4,4.5-13.8,6.3c-6,2.6-11.7,4.7-16,6.1l0.2,0c6.2-1.7,13.5-4.1,21.6-7.5
	c-7.6,3.6-13.9,6-15.7,7.4c4.9-1.6,10.5-3.6,16.2-6.2l-0.6,0.3c-1.9,0.8-3.8,1.8-5.7,2.4c1-0.3,2.3-0.8,3.8-1.4l-2.5,1.2
	c-11.5,5.1-24.5,8.8-31.9,8.9c5.7,0.4,16.5-2,24.6-4.8c5.3-1.8,13.9-5.3,21.6-9.1c-9.6,5-18.4,8.9-20.7,10.5
	c9.1-3.3,19.8-8.3,27.9-12.7c-5.5,3.2-11.5,6.5-14.3,8.1c-1.3,0.7-2.5,1.4-3.4,1.9c-0.8,0.6-3.2,1.9-5.5,3.1
	c-2.6,1.3-5.1,2.5-4.9,2.8c9.2-4.1,26.4-11.9,38.6-19.3c0.2-0.1,0.4-0.2,0.6-0.3c-0.7,0.7-0.8,1.1-1.1,1.5c-4.5,2.5-4.2,2.5-6.3,3.8
	c4.8-2.5,9.7-5.3,14.3-8c-10.7,6.7-23.6,14.5-42,22.4c15.1-6.1,32.6-15.3,45.7-23.3l0.3,0c3.2-2,5.4-3.3,8.6-5.3
	c1.5-1,2.9-1.9,4.1-2.8c-6.9,4.9-10.8,7.8-4.9,5c-2.3,0.8,6.1-4.6,12-8.6c3.3-2.3,7.4-5,11.1-7.8c-0.9,0.9-1.3,1.6-5.5,4.7
	c4.1-2.8,7.8-5.4,11.3-8c-1.8,1.8-1.7,2.2,1.9,0.1c1.7-0.9,6.1-4,11-7.7c-2.7,1.3-2.4,0.3,3.5-5c1.5-1.4,1.6-1.7,1.3-1.6l3.2-2.5
	l1.4-0.5c1.5-0.6,2.7-1,4.2-1.6c1.6-1.3,6-5.1,6.4-5.8c1.5-0.5,2.8-0.8,3.6-0.8c10.4-10.7,9.5-13.6,6.1-11.5l-0.3,0.2
	c0.4-0.5,0.8-1,1.2-1.6C223.8,284.8,224.2,284.4,224.6,284.1"/>
<path class="st3" d="M230,269.9h-0.2c-1.3-1.3-4.2-4.1-8.3-5.1c-2.5-0.6-5.8-0.7-5-1.1c0-0.2-0.4-0.2-1-0.2
	c-0.7,0.5-1.6,0.9-2.9,1.3c-2.6,0-5.3,0.1-8.6,0.6c-4.1,0.8-6.3,1.3-11.2,2.7c-4.4,1.2-9.6,2.9-14.9,5.1c-2.3,1.1-5.1,2.4-6.7,3.4
	c0,0-3,1.4-4.5,2.1c-4,2.1-6.4,3.4-9.6,5.3l-0.1,0.2c-0.3,0.3-1.2,0.9-2.6,1.9c-0.6,0.4-1.7,1-2.9,1.8c-3.6,2.5-9.2,6.3-14.2,10
	c0.4,0,0.1,0.7-0.6,1.5v0.8c-3.1,2.6-5.7,4.8-8,6.9c0.6-0.2,1.6-0.9,4.9-3.5c-1.1,1.1-2.4,2.3-3.6,3.4c1.3-0.8,0.8,0.4,4.4-2.2
	c-1.1,1-1.8,2.1-2.6,3.2l0.2-0.2c1.6-1.3,4.4-3,5.2-3.3c0.7-0.3-0.2,0.7-1.7,2.3c1-0.9,2-1.9,3.1-2.8c3-2.4,4.3-2.7,2.8-0.9
	c0.7-0.3,1.8-0.7,2.6-1c1-0.4,2-0.8,2.6-0.9c0.3-0.2,0.6-0.5,0.9-0.8l0.1-0.1c0.2-0.2,0.4-0.4,0.7-0.6c0.7-0.5,1.4-1.1,2.4-1.8
	c0.4-0.3,0.8-0.6,1.3-0.9c3-2.1,5.4-3,5.9-2.8c4.2-2.2,4.7-2,4.4-1.5c0.8-0.6,1.9-1.3,3.3-1.9c0.7-0.4,1.2-0.6,2-1
	c0.1,0.2,1.4-0.1,1.8-0.1c-0.3,0.4-0.1,0.5-0.6,1l-0.4,0.3h0c0.2-0.1,0.5-0.3,0.7-0.4c0.5-0.4,2.4-1.4,4.1-1.9
	c1.9-0.4,2.9-0.3,3.1-0.1c0.8-0.1,1.3-0.1,1.3-0.1c0.1,0.5,1.3,0.8,2.2,1.2c1.1-0.1,1.6-0.2,3.2-0.3c1.2,0.2,0.7,1,2.1,1.3
	c1.4,0.2,1.8,1.4,1.2,2.1c-0.2,0.8-0.2,1.6-1.2,2.9l-0.2,0.3c-2.4,3.5-6.7,7.8-8.6,9c-0.2,0.1-0.3,0.2-0.5,0.3l-0.6,0.4l0.4-0.1
	c0.8-0.2,1.2,0,1.3,0.4c-1.7,1.5-3.4,3.1-5.4,4.7c-1.9,1.9-3,2.8-5.1,4.7c-2.4,1.9-4.9,3.9-7.5,5.9l-0.5,0.3l-0.1,0.4
	c-0.2,0-1.6,0.8-2.3,1.2c-1.5,1.1-2.9,2.1-4.5,3.1c2.1-1.1,3.9-1.8,1.2,0.2c-1.5,1.1-3.5,2.5-5.7,3.8c0.4-0.2,0.6-0.1,0.2,0.2
	c-1,1.1-5.4,4-10.3,6.9c0.7,0,0.2,0.7-0.8,1.6l-0.5,1c-3.3,2-6.3,3.8-9.1,5.3c0.3,0.1,1.2-0.2,4.9-2.2c-1.5,1-3.1,1.9-4.8,2.9
	c1.2-0.5-0.7,1.2,3.3-0.7l-1.1,0.6c0.3-0.1,0.5-0.2,0.4,0c-0.3,0.3-0.9,0.7-1.7,1.3c1.4-0.4,2.8-0.7,3.1-0.8c0.3,0-0.2,0.4-1.2,1.1
	c0.8-0.4,1.6-0.7,2-1c4.2-2.3,5.2-2.3,1.9,0c0.6,0,2.3-0.5,2.8-0.5l0.4,0c0.3,0,0.6,0,0.7,0l0.6-0.3c2.1-1.3,5-3.1,9-5.5
	c4.5-2.7,7.8-4.2,8.3-4.1c4.1-2.4,6.2-3.5,7.1-3.8c1.4-0.9,2.8-1.9,4.5-3c1-0.7-1.2,1.2,2.1-0.9c1-0.7,2.1-1.4,2.5-1.9
	c-0.2,0.3,1.1-0.4,1.5-0.5c4.4-3.2,9.5-6.9,11.5-8.1c1.3-0.8,1.9-1.1,1.9-1c1.5-1.1,3.1-2.3,4.7-3.6c0.9-0.7,3.4-2.8,3.7-2.9
	c0.8-0.2,2.4-1.2,3-1.4l3.2-2.5l-2,0.7c2.3-1.4,5.9-4.1,9.4-6.9c1.2-1.3,2.5-2.6,3.7-3.9c2.9-2.9,6.1-5.1,9.3-9.3
	c3.4-4.2,6.1-10.2,7.6-14.5C229.2,271.7,229.6,270.7,230,269.9 M223.4,285.2c-0.6,0.6-1.3,1.3-2.1,2.2c0.3-0.3,0.7-0.4,1-0.6
	C222.7,286.2,223,285.7,223.4,285.2"/>
<path class="st4" d="M226.3,269.1c-1.8-2.1-4.9-3.3-9-3.5c-3.3-0.2-7.4,0-11.8,0.6c-2,0.3-4.1,0.7-6.3,1.2
	c-7.6,1.7-16.3,4.7-23.9,8.4c-15.1,7.4-21.5,12.7-22,14.6v0.4c0.1,0.3,0.5,0.4,1.2,0.2c4-0.5,14.7-5.3,22-5.6
	c3.9-0.3,7.8-0.1,11.6,1c3.1,0.8,4,2.6,2.8,5.8c-2.5,6.6-14.2,17.4-21.5,24.5c-7.7,7.3-12.2,12.1-7.9,11.3
	c4.1-0.8,17.1-7.4,32.9-18.8c1.6-1.1,3.2-2.3,4.8-3.6c6.4-4.8,12.9-10.4,18.5-16.3c5.1-5.5,9.3-11.5,9.6-16.1v-1.2
	C227.2,270.8,226.9,269.9,226.3,269.1"/>
<path class="st5" d="M193.8,304.1c3.2-1.2,10.9-6.2,18.6-13.5c7.5-7,14.8-17.6,7.7-21.3c-1.8-0.8-3.9-1.3-6.4-1.4
	c-2-0.1-4.4-0.1-6.9,0.2c-4.9,0.4-10.5,1.7-15.5,3.3c-10.5,3.4-16.9,7.4-16,8.2c0.7,1,6.4-0.1,11.7,0.3c5,0.5,12.3,1.1,13.1,4.8
	C201.5,292.7,186.2,307,193.8,304.1"/>
<path class="st6" d="M332.1,264c-2.6-1.3-6.2-1.7-9.1-1.7c-10.5,0-16.4,7.4-16.4,17.5c0,10.2,5.8,17.5,16.4,17.5
	c2.7,0,6.7-0.3,9.1-1.7l0.2,3.5c-2.2,1.3-6.7,1.7-9.3,1.7c-12.8,0-20.5-8.4-20.5-21c0-12.3,7.9-21,20.5-21c2.4,0,7.2,0.4,9.3,1.5
	L332.1,264"/>
<path class="st6" d="M357.6,258.8c12.2,0,18,10,17.8,21c-0.1,12.4-6.2,21-17.8,21c-11.7,0-17.7-8.5-17.8-21
	C339.7,268.8,345.4,258.8,357.6,258.8 M343.8,279.8c0,8.6,4.3,17.5,13.8,17.5c9.5,0,13.8-8.9,13.8-17.5c0-8.6-4.3-17.5-13.8-17.5
	C348.1,262.3,343.8,271.2,343.8,279.8"/>
<path class="st6" d="M411.4,285.9c0,12-8.8,14.9-14.7,14.9c-5.9,0-14.7-2.9-14.7-14.9v-26.4h4v26.4c0,6.6,3.7,11.4,10.7,11.4
	c7,0,10.7-4.8,10.7-11.4v-26.4h4V285.9"/>
<polygon class="st6" points="419.1,259.5 424.1,259.5 444.8,295.2 444.9,295.2 444.9,259.5 448.9,259.5 448.9,300 443.5,300 
	423.2,265.1 423.1,265.1 423.1,300 419.1,300 "/>
<polygon class="st6" points="464.6,263 452.6,263 452.6,259.5 480.5,259.5 480.5,263 468.6,263 468.6,300 464.6,300 "/>
<path class="st6" d="M484.7,259.5h10.5c7.2,0,11.9,3.1,11.9,10.5c0,5.2-4,8.7-9,9.4v0.1c3.3,0.4,3.9,2.2,5.2,4.9l6.9,15.7h-4.4
	l-5.9-13.7c-2.3-5.2-4.1-5.4-7.9-5.4h-3.3v19.1h-4V259.5 M488.7,277.4h4.2c4.7,0,10.1-1.8,10.1-7.4c0-6.6-4.7-7-10.2-7h-4.1V277.4z"
	/>
<polygon class="st6" points="525.5,282.8 510.4,259.5 515.1,259.5 527.5,279.3 540.2,259.5 544.5,259.5 529.5,282.8 529.5,300 
	525.5,300 "/>
<path class="st6" d="M332.1,328.9h-9.4v-3.5h13.4v20.2c-4.1,1.8-8.1,2.5-12.6,2.5c-12.8,0-20.5-8.4-20.5-21c0-12.3,7.9-21,20.5-21
	c3.1,0,8.1,0.5,10.9,1.9l-0.5,3.7c-3.1-1.7-6.9-2.2-10.4-2.2c-10.5,0-16.4,7.4-16.4,17.5c0,10.2,5.8,17.5,16.4,17.5
	c2.5,0,6.7-0.3,8.6-1.5V328.9"/>
<path class="st6" d="M357.2,306.9h4.5l16.1,40.6h-4.2l-4.4-10.9h-20.5l-4.4,10.9h-3.9L357.2,306.9z M359.2,310.7l-8.8,22.4H368
	L359.2,310.7z"/>
<path class="st6" d="M382.4,306.8h10.5c7.2,0,11.9,3.1,11.9,10.5c0,5.2-4,8.7-9,9.4v0.1c3.3,0.4,4,2.2,5.2,4.9l6.9,15.7h-4.4
	l-5.9-13.7c-2.3-5.2-4.1-5.4-7.9-5.4h-3.3v19.1h-4V306.8 M386.4,324.8h4.2c4.7,0,10.1-1.8,10.1-7.4c0-6.6-4.7-7-10.2-7h-4.1V324.8z"
	/>
<path class="st6" d="M412.8,306.9h10c14.5,0,20.3,8.4,20.3,20.2c0,14.7-9.8,20.3-23.2,20.3h-7.1V306.9 M416.8,343.9h3.3
	c11.5,0,19-4.7,19-17.1c0-12.4-7.4-16.5-16.4-16.5h-5.9V343.9z"/>
<polygon class="st6" points="450.5,306.8 470.4,306.8 470.4,310.3 454.5,310.3 454.5,324.8 469.5,324.8 469.5,328.3 454.5,328.3 
	454.5,343.9 471.1,343.9 471.1,347.4 450.5,347.4 "/>
<polygon class="st6" points="477.6,306.8 482.6,306.8 503.3,342.5 503.4,342.5 503.4,306.8 507.4,306.8 507.4,347.4 502,347.4 
	481.7,312.4 481.6,312.4 481.6,347.4 477.6,347.4 "/>
<polygon class="st6" points="303.1,356.6 306.7,356.6 306.7,363.8 313.9,363.8 313.9,356.6 317.6,356.6 317.6,374.6 313.9,374.6 
	313.9,366.7 306.7,366.7 306.7,374.6 303.1,374.6 "/>
<path class="st6" d="M327.5,361c4,0,7,2.7,7,7c0,3.8-2.6,6.9-7,6.9c-4.4,0-6.9-3-6.9-6.9C320.6,363.6,323.6,361,327.5,361
	 M327.5,372.2c2.7,0,3.4-2.4,3.4-4.6c0-2-1.1-3.9-3.4-3.9c-2.2,0-3.3,2-3.3,3.9C324.2,369.8,324.9,372.2,327.5,372.2"/>
<rect x="337.3" y="355.2" class="st6" width="3.5" height="19.4"/>
<path class="st6" d="M353.3,373.1L353.3,373.1c-1.1,1.3-2.5,1.8-4.1,1.8c-4.1,0-5.6-3.4-5.6-7c0-3.7,1.5-6.9,5.6-6.9
	c1.7,0,2.9,0.6,4,1.9h0.1v-7.6h3.5v19.4h-3.4V373.1 M350.1,372.2c2.3,0,3-2.4,3-4.3c0-1.9-0.9-4.2-3.1-4.2c-2.2,0-2.9,2.5-2.9,4.2
	C347.2,369.7,347.8,372.2,350.1,372.2"/>
<path class="st6" d="M360.3,355.5h3.5v3.3h-3.5V355.5z M360.3,361.3h3.5v13.3h-3.5V361.3z"/>
<path class="st6" d="M367.4,361.3h3.3v1.8h0.1c1.1-1.5,2.6-2.1,4.4-2.1c3.2,0,4.5,2.2,4.5,5.2v8.4h-3.5v-7.1c0-1.6,0-3.8-2.3-3.8
	c-2.5,0-3,2.7-3,4.4v6.5h-3.5V361.3"/>
<path class="st6" d="M395.4,361.3v12c0,3.6-1.4,7-7,7c-1.4,0-2.9-0.2-4.6-0.9l0.3-2.9c1.1,0.6,2.8,1.2,3.9,1.2c3.8,0,4-2.9,4-5.2
	h-0.1c-0.6,1.1-2.2,2.1-4.1,2.1c-3.9,0-5.4-3.2-5.4-6.7c0-3.2,1.7-6.9,5.6-6.9c1.8,0,3.1,0.6,4.1,2.1h0.1v-1.8H395.4 M391.9,367.8
	c0-2.3-0.9-4.1-2.9-4.1c-2.4,0-3.1,2.2-3.1,4.2c0,1.8,1,4,2.9,4C391,371.9,391.9,370,391.9,367.8"/>
<path class="st6" d="M406.9,364.1c-1.1-0.4-1.8-0.6-3.1-0.6c-0.9,0-2,0.3-2,1.5c0,2.1,6,0.8,6,5.6c0,3.1-2.8,4.3-5.6,4.3
	c-1.3,0-2.7-0.2-3.9-0.6l0.2-2.8c1.1,0.5,2.2,0.9,3.4,0.9c0.9,0,2.3-0.3,2.3-1.6c0-2.6-6-0.8-6-5.6c0-2.9,2.5-4.1,5.2-4.1
	c1.6,0,2.7,0.3,3.8,0.5L406.9,364.1"/>
<path class="st6" d="M431,374.3c-1.3,0.3-2.7,0.6-4.1,0.6c-5.8,0-9.9-2.9-9.9-9c0-6.2,3.8-9.6,9.9-9.6c1.2,0,2.8,0.2,4.1,0.7l-0.3,3
	c-1.4-0.8-2.6-1-3.9-1c-3.7,0-6,2.8-6,6.5c0,3.7,2.3,6.4,6.1,6.4c1.4,0,3.1-0.3,3.9-0.7L431,374.3"/>
<path class="st6" d="M439.5,361c4,0,7,2.7,7,7c0,3.8-2.6,6.9-7,6.9c-4.4,0-6.9-3-6.9-6.9C432.5,363.6,435.6,361,439.5,361
	 M439.5,372.2c2.7,0,3.4-2.4,3.4-4.6c0-2-1.1-3.9-3.4-3.9c-2.2,0-3.3,2-3.3,3.9C436.2,369.8,436.9,372.2,439.5,372.2"/>
<path class="st6" d="M449.1,361.3h3.2v1.9h0.1c1.1-1.6,2.7-2.2,4-2.2c1.9,0,3.2,0.7,3.9,2.3c0.8-1.6,2.5-2.3,4.2-2.3
	c3.3,0,4.2,2.2,4.2,5.2v8.4h-3.5v-7.9c0-1.2,0-3-2-3c-2.3,0-2.6,2.7-2.6,4.5v6.4h-3.5v-7.9c0-1.2,0-3-2-3c-2.3,0-2.6,2.7-2.6,4.5
	v6.4h-3.5V361.3"/>
<path class="st6" d="M472.2,361.3h3.3v1.9h0.1c0.8-1.3,2.1-2.2,4.1-2.2c4.1,0,5.6,3.2,5.6,6.9c0,3.6-1.5,7-5.7,7
	c-1.5,0-2.7-0.4-3.9-1.8h-0.1v6.9h-3.5V361.3 M475.6,367.9c0,1.9,0.8,4.3,3.1,4.3c2.3,0,2.9-2.5,2.9-4.3c0-1.8-0.6-4.2-2.9-4.2
	C476.5,363.7,475.6,366,475.6,367.9"/>
<path class="st6" d="M488.5,362c1.3-0.6,3.1-1,4.6-1c4,0,5.7,1.7,5.7,5.6v1.7c0,1.3,0,2.3,0,3.3c0,1,0.1,1.9,0.2,3h-3
	c-0.1-0.7-0.1-1.6-0.2-2h0c-0.8,1.5-2.5,2.3-4.1,2.3c-2.3,0-4.6-1.4-4.6-3.9c0-2,1-3.2,2.3-3.8c1.3-0.6,3-0.8,4.5-0.8h1.9
	c0-2.1-0.9-2.9-3-2.9c-1.5,0-2.9,0.6-4.1,1.4L488.5,362 M492.6,372.4c1.1,0,1.9-0.5,2.4-1.2c0.6-0.7,0.7-1.7,0.7-2.7h-1.5
	c-1.6,0-3.9,0.3-3.9,2.3C490.4,371.9,491.3,372.4,492.6,372.4"/>
<path class="st6" d="M502.3,361.3h3.3v1.8h0.1c1.1-1.5,2.6-2.1,4.4-2.1c3.1,0,4.5,2.2,4.5,5.2v8.4h-3.5v-7.1c0-1.6,0-3.8-2.3-3.8
	c-2.5,0-3,2.7-3,4.4v6.5h-3.5V361.3"/>
<path class="st6" d="M523.6,371L523.6,371l3.3-9.7h3.5l-5,13.2c-1.1,2.9-1.9,5.8-5.5,5.8c-0.8,0-1.7-0.1-2.5-0.4l0.2-2.6
	c0.4,0.2,0.9,0.2,1.8,0.2c1.4,0,2.3-1,2.3-2.4l-5.1-14h3.8L523.6,371"/>
<polygon class="st6" points="540,356.6 543.6,356.6 543.6,371.7 550.6,371.7 550.6,374.6 540,374.6 "/>
<path class="st6" d="M552.6,355.5h3.5v3.3h-3.5V355.5z M552.6,361.3h3.5v13.3h-3.5V361.3z"/>
<path class="st6" d="M559.7,361.3h3.2v1.9h0.1c1.1-1.6,2.7-2.2,3.9-2.2c1.9,0,3.2,0.7,3.9,2.3c0.8-1.6,2.5-2.3,4.2-2.3
	c3.3,0,4.2,2.2,4.2,5.2v8.4h-3.5v-7.9c0-1.2,0-3-2-3c-2.3,0-2.6,2.7-2.6,4.5v6.4h-3.5v-7.9c0-1.2,0-3-2-3c-2.3,0-2.6,2.7-2.6,4.5
	v6.4h-3.5V361.3"/>
<path class="st6" d="M582.8,355.5h3.5v3.3h-3.5V355.5z M582.8,361.3h3.5v13.3h-3.5V361.3z"/>
<path class="st6" d="M591,363.8h-2.6v-2.5h2.6v-2.7l3.5-1.1v3.8h3.1v2.5h-3.1v6.2c0,1.1,0.3,2.2,1.6,2.2c0.6,0,1.2-0.1,1.6-0.4
	l0.1,2.7c-0.7,0.2-1.5,0.3-2.6,0.3c-2.7,0-4.2-1.7-4.2-4.3V363.8"/>
<path class="st6" d="M610.6,373.8c-1.3,0.7-2.7,1.1-4.6,1.1c-4.4,0-6.9-2.5-6.9-6.9c0-3.8,2-7,6.2-7c4.9,0,6.3,3.4,6.3,8h-9.2
	c0.2,2.1,1.7,3.4,3.8,3.4c1.7,0,3.1-0.6,4.4-1.3V373.8 M608.3,366.6c-0.1-1.7-0.9-3.1-2.8-3.1c-1.9,0-2.9,1.3-3.1,3.1H608.3z"/>
<path class="st6" d="M623.2,373.1L623.2,373.1c-1.1,1.3-2.5,1.8-4.1,1.8c-4.1,0-5.6-3.4-5.6-7c0-3.7,1.5-6.9,5.6-6.9
	c1.7,0,2.9,0.6,4,1.9h0.1v-7.6h3.5v19.4h-3.4V373.1 M620,372.2c2.3,0,3-2.4,3-4.3c0-1.9-0.9-4.2-3.1-4.2c-2.2,0-2.9,2.5-2.9,4.2
	C617.1,369.7,617.7,372.2,620,372.2"/>
<path class="st6" d="M322.7,396.8v1.4l-11.6,0c-0.5,0.7-1.2,1.4-1.8,2l10.8,0l0,6.2h-1.5v-1.3h-10.1v1.4H307l0-4.5h-0.1
	c-1.3,0.9-2.7,1.5-4.2,2c-0.4-0.4-0.7-0.9-0.9-1.3c2.7-0.9,5.4-2.2,7.4-4.6h-6.8v-1.4H322.7 M311.4,386.2v1.4h-3.5v2.2h3v1.4h-2.9
	v2.3l4.1-0.6l0,1.4l-8.9,1.4l-0.9-1.4c1.4-0.2,2.8-0.3,4.1-0.6v-2.6l-2.8,0v-1.4h2.8v-2.2l-3.7,0l0-1.4L311.4,386.2z M308.5,401.6
	v2.1h10.1v-2.1L308.5,401.6z M312.6,387.1h3.1c0.7-0.7,1-1.5,1.3-2.4c0.5,0.2,1,0.4,1.5,0.6c-0.3,0.6-0.6,1.2-1.1,1.8l4,0v8.1
	l-8.8,0V387.1z M314.1,391.8l0,2.1l5.9,0v-2.1L314.1,391.8z M314.1,388.4v2.1h5.9l0-2.1L314.1,388.4z"/>
<path class="st6" d="M334.4,393.5c1.2,1.1,2,2.5,2.5,3.9c-0.4,0.2-0.8,0.5-1.3,0.7c-0.3-1.1-0.9-2.3-1.7-3.2l-0.1,11.4h-1.6v-11.1
	c-0.9,1.8-1.9,3.4-3.3,4.9l-1.3-1c2.3-2.1,3.8-4.9,4.6-8h-3.7l0-1.4h3.7v-4.7h1.6v4.7h2.7v1.4h-2.7v2.7L334.4,393.5 M343.2,395.9
	v2.7h4.5v1.4h-4.5l0,3.9h6.1v1.4h-13.6c0-0.5,0-0.9,0-1.3l6,0v-3.9h-4.7l0-1.4h4.6v-2.7L343.2,395.9z M337.3,388.3h4.4v-3.4l1.5,0
	l0,3.4h4.3v1.4h-4.4v3.9h5.5v1.4l-12.6,0l0-1.3h5.5v-3.9l-4.4,0V388.3z"/>
<path class="st6" d="M356.4,406.6h-1.5V386h19v20.5h-1.5v-1l-16.1,0V406.6 M356.4,404.1l16.1,0v-16.7l-16.1,0V404.1z M360.3,402.4
	c0.5-0.1,0.9-0.2,1-0.6l0-1.4c-1.1,0.6-2.1,1.1-3.3,1.4l-0.9-1.2c1.4-0.3,3.6-0.9,5.5-2.7h-3.1v-3.8h9.9l0,3.8l-5,0
	c-0.5,0.6-1.1,1.1-1.7,1.5l0,2.3c0.9-0.1,1.8-0.5,2.7-0.7l0,1.1c-1.4,0.4-2.8,0.8-4.2,1.2L360.3,402.4z M363.7,390.4h-4.6v-1.2
	l4.6,0l0-1.3l1.5,0v1.2l4.6,0v1.2h-4.6l0,1.4h6.2v1.3l-13.9,0v-1.3h6.3V390.4z M360.9,396.8h7.1v-1.4h-7.1L360.9,396.8z
	 M370.5,403.3c-1.7-1.8-3.9-2.7-6.1-3.4l0.6-1c0.8,0.2,1.6,0.5,2.4,0.8c0.9-0.4,1.8-1,2.5-1.8l1,0.9c-0.7,0.7-1.4,1.2-2.2,1.6
	c1,0.5,1.9,1.2,2.7,2L370.5,403.3z"/>
<path class="st6" d="M384.7,404.9c-0.1,1-0.7,1.6-1.9,1.6l-2,0l-0.6-1.6c0.8,0.1,1.5,0.2,2.3,0.1c0.3-0.1,0.7-0.3,0.7-0.6V398
	c-0.9,0.4-1.8,1-2.7,1.4c-0.4-0.4-0.7-0.7-1-1.1c1.3-0.5,3.1-1.4,3.8-1.7v-5.4l-3.1,0v-1.4h3.1v-4.6l1.5,0l0,4.7h2.1l0,1.4h-2.1
	l0,4.7c0.8-0.4,1.6-0.8,2.3-1.1l0,1.5c-0.8,0.4-1.6,0.7-2.3,1.1V404.9 M386.4,403.8h6.5v-3.9h-5.2v-1.4l11.8,0v1.4h-5.1v3.9h6.6v1.3
	h-14.6V403.8z M388.9,389.3v3.4h-1.5v-4.8l6.3,0c-0.3-0.4-0.8-0.8-1.2-1.1c-0.5-0.4-1-0.8-1.6-1.1c0.3-0.3,0.7-0.7,1-1h0.1
	c1.1,0.7,2.2,1.5,3.1,2.6l-0.8,0.6l5.7,0.1l0,4.7h-1.4l0-3.3L388.9,389.3z M392.7,390.8c0.1,2.1-0.2,4.4-2.1,5.6
	c-0.8,0.5-1.6,0.9-2.4,1.2c-0.3-0.4-0.5-0.9-0.7-1.3c1.1-0.5,2.4-0.9,3.2-1.9c0.8-1,0.4-2.3,0.5-3.5L392.7,390.8z M396.3,390.7
	l0,3.7c0,0.2,0.3,0.4,0.6,0.5h3.6v1.4l-3.9,0c-0.7-0.1-1.7-0.5-1.9-1.4l0-4.1L396.3,390.7z"/>
<path class="st6" d="M409.5,404.4l2.3,0.1c0.5,0.1,0.7,0,0.8-0.2l0-6.9l-2.6,1.7l-0.7-0.8c-0.1,3-0.6,5.8-2.2,8.2l-1.3-0.8
	c1.7-2.5,2-5.8,2-8.8l0-10.7h6.2v18.2c0,1-0.8,1.7-1.8,1.6h-2.2L409.5,404.4 M409.3,397.8c1.1-0.6,2.2-1.3,3.3-2l0-8.2l-3.3,0
	L409.3,397.8z M410.6,389.4c0.9,1.3,1.4,2.9,1.6,4.5l-1.3,0.5c-0.1-1.6-0.6-3.2-1.4-4.6L410.6,389.4z M414.5,393.3
	c1.3-0.5,2.7-1.7,2.7-3.3v-3.9h7l0,5.4c0.1,0.2,0.3,0.3,0.5,0.4h2.1v1.3H424c-0.6-0.2-1.2-0.6-1.3-1.2l0-4.5l-4,0
	c0,1.7,0.1,3.5-0.8,4.9c-0.6,0.9-1.5,1.8-2.6,2.2L414.5,393.3z M414.5,404.9c1.9-0.6,3.7-1.6,5.3-3c-1.3-1.7-2.1-3.7-2.6-5.7h-1
	v-1.4h8.5c-0.3,2.7-1.3,5.1-2.9,7.2c1.6,1.5,3.4,2.6,5.4,3.1l-0.9,1.3c-2.1-0.5-3.9-1.8-5.5-3.4l-0.1,0c-1.4,1.2-2.9,2.3-4.6,2.9
	l-0.9,0.3L414.5,404.9z M420.9,401c0.9-1,1.9-3.5,2.1-4.8h-4.4c0.4,1.4,1.3,3.4,2.2,4.6L420.9,401z"/>
<path class="st6" d="M441.3,385c-0.2,0.9-0.6,2.1-0.8,3.1h12.5v1.4l-13.1,0c-0.4,1.1-0.6,1.8-1.1,2.7H450v12.3
	c-0.1,0.6-0.5,1.1-1.1,1.3c-1,0.2-2.1,0.1-3.1,0.1c-0.2-0.5-0.5-1-0.7-1.5c0.9,0.1,1.9,0.1,2.8,0.1c0.4,0,0.5-0.1,0.6-0.5l0-2.7
	l-9.6,0v5.2h-1.5v-12.1c-1.2,1.7-2.9,3.5-4.4,5c-0.5-0.2-0.9-0.6-1.4-0.9c2.9-2.6,5.4-5.6,6.6-9l-5.2,0v-1.4h5.8
	c0.4-1.1,0.7-2.3,1-3.4L441.3,385 M438.9,399.9h9.6v-2.6h-9.6V399.9z M438.9,393.6v2.3l9.5,0v-2.4H438.9z"/>
<path class="st6" d="M459.1,386h6.5v1.5c-0.6,1.8-1.4,3.6-2.1,5.3c1.5,1.4,2.8,3.3,2.3,5.6c-0.2,1-1,2-1.9,2.3
	c-0.6,0.3-1.5,0.2-2.2,0.1l-0.4-1.6c0.8,0.2,1.8,0.5,2.4,0c0.7-0.5,0.8-1.5,0.6-2.3c-0.3-1.4-1.3-2.7-2.5-3.7
	c0.8-1.8,1.5-3.7,2.2-5.6h-3.5v19h-1.5L459.1,386 M468.4,404.1c1.2-0.6,2.5-1,3.7-1.6v1.5c-1.7,0.7-3.3,1.5-5,2.2
	c-0.4-0.3-0.9-0.6-1.3-1c0.7-0.3,1-1,1-1.8v-17.4h10v10.1h-4.1c0.1,1.4,0.2,2.4,1,3.9h0.1c1.2-1,2.5-2,3.6-3.1l1.1,1.1
	c-1.3,1.3-2.8,2.3-4.1,3.3c1,1.7,2.7,3.1,4.5,3.7l-0.1,0.1c-0.3,0.3-0.5,0.8-0.8,1.1c-2.5-1-4.9-3.6-5.9-6.1c-0.5-1.4-0.7-2.5-0.9-4
	h-2.9L468.4,404.1z M468.4,390.4l7,0v-2.9h-7L468.4,390.4z M475.4,391.7l-7,0v3.1h7V391.7z"/>
<path class="st6" d="M491.6,389.4c-0.7,2.4-2.4,4.5-4.3,6.3l-0.1,0.1l-1.1,0.9h-0.1l-1.1-1.1c1.5-1,2.8-2.3,3.9-3.7
	c0.7-1,1.3-2.1,1.6-3.3L491.6,389.4 M498.7,398c2.1,2,3.5,4.5,4.3,7.1c-0.5,0.3-1,0.5-1.5,0.7c-0.2-0.9-0.6-1.8-1-2.6l-4.8,0.8
	l-4.6,0.7c-0.9,0.1-1.8,0.4-2.7,0.6c-0.4-0.6-0.8-1.1-1.1-1.6c1.4-1.2,2.6-2.7,3.6-4.3c1.1-2,1.9-4.1,2.3-6.3c0.5,0.1,1,0.4,1.5,0.6
	c-0.2,1.4-0.7,2.7-1.2,4c-0.9,2.2-2.3,4.2-4,5.9l0.6,0l4.7-0.7c1.7-0.2,3.4-0.6,5-0.8c-0.7-1.2-1.6-2.3-2.6-3.2L498.7,398z
	 M491.3,386.4h7.5c0.9,3.5,2.5,7.2,5.9,9.2l-1.1,1.1c-0.8-0.4-1.6-1-2.1-1.7c-2-2.1-3.1-4.6-3.9-7.3h-6.3L491.3,386.4z"/>
<path class="st6" d="M526.7,391.8h-15.4v-1.5l15.4,0V391.8 M529.9,404.5c0,0.7-0.4,1.4-1,1.7c-0.8,0.3-1.7,0.2-2.6,0.2h-0.9
	l-0.6-1.6c0.9,0.1,1.9,0.1,2.9,0.1c0.3,0,0.5-0.3,0.6-0.6v-16.8l-15.8,0V386l17.4,0L529.9,404.5z M522.5,403.2v-1.7l-6.9,0v1.8H514
	v-8.7h10l0,8.7H522.5z M522.5,396h-6.8l0,4.1l6.9,0V396z"/>
<line class="st7" x1="270" y1="241.7" x2="270" y2="412.2"/>
<line class="st8" x1="270" y1="241.7" x2="270" y2="412.2"/>
</svg>
