<svg xmlns="http://www.w3.org/2000/svg" height="800" width="1200" viewBox="-31.001415 -9.462325 268.67893 56.77395"><g fill-rule="evenodd" fill="none"><path fill="#020303" d="M89.5998 3.6767h2.5493V0h-2.5493zm0 26.4851h2.5493V8.4378h-2.5493zm8.4139.0005V8.4383h2.5493v3.3005c2.2527-2.3394 3.9093-3.7185 7.3514-3.7185 2.4641 0 4.7168 1.546 5.3537 3.9696 1.9968-2.2976 4.1216-3.9696 7.3088-3.9696 3.8666 0 5.8218 2.089 5.8218 5.891v16.251h-2.5494V13.661c0-2.4237-1.36-3.635-3.825-3.635-1.9542 0-5.1849 2.0473-6.544 4.1355v16.0008h-2.5493V13.661c0-2.4237-1.36-3.635-3.824-3.635-1.9551 0-5.184 2.0473-6.544 4.1355v16.0008zM143.9936 17.88c-10.113 2.1725-11.473 4.2199-11.473 6.9763 0 2.382 1.6566 3.7184 3.952 3.7184 2.3796 0 5.311-1.3782 7.521-3.5924zm.4246 12.2824l-.3403-2.6322c-2.6346 2.0473-4.6315 3.0502-8.03 3.0502-3.442 0-6.0767-2.0891-6.0767-5.6815 0-5.9326 4.9281-7.0189 14.1503-9.0245V14.371c0-2.8824-1.2747-4.345-5.057-4.345-2.6346 0-4.802 1.4209-6.417 3.927l-1.6992-1.0028c1.9115-3.509 4.6315-4.9298 8.2006-4.9298 5.0143 0 7.394 2.0057 7.394 6.8094v11.3639c0 1.0862.0853 2.5061.3393 3.9687zm14.8326-9.149c3.569 0 5.7356-1.671 5.7356-5.4312 0-3.8009-2.1665-5.5563-5.7356-5.5563-3.57 0-5.7365 2.1725-5.7365 5.5563 0 3.7602 2.6337 5.4312 5.7365 5.4312zm-6.799 11.2378c0 2.1308 2.124 3.5924 6.7137 3.5924 5.5242 0 7.904-1.4616 7.904-3.7175 0-1.7971-1.4453-3.5516-8.0737-3.5516-5.0152 0-6.544 1.7971-6.544 3.6767zm17.04-22.3921c-1.1477 0-2.6347.125-3.5274 1.0028.977 1.1696 1.5722 2.4644 1.5722 4.5535 0 5.3469-3.8666 7.6037-8.5408 7.6037-1.4026 0-2.465-.2929-3.57-.6692-1.4026.5014-2.0395 1.2948-2.0395 2.0891 0 1.253.8501 1.8796 6.8416 1.8796 6.6292 0 9.3909 2.089 9.3909 5.6398 0 3.1753-2.465 5.8909-10.0714 5.8909-7.6063 0-9.6458-2.5488-9.6458-5.1383 0-1.8806.7648-3.4682 3.8667-4.5953v-.0843c-1.614-.3337-2.9313-1.002-2.9313-2.8407 0-1.838 1.7002-3.3422 3.3141-3.6758-1.9968-1.3375-3.1871-3.4256-3.1871-5.6815 0-4.763 3.4003-7.8132 8.754-7.8132 2.1238 0 3.7387.5858 5.1414 1.5043 1.2756-1.2531 2.8895-1.9213 4.6324-1.9213zm16.6585 7.5195c-.5099-4.47-2.5067-7.3108-6.3743-7.3525-4.5036-.0417-6.416 4.47-6.4587 7.3525zm-12.833 2.0057c0 4.9288 2.0821 9.1904 7.0965 9.1904 2.8478 0 4.2495-.9611 6.4586-4.3867l2.0822 1.0863c-2.3797 3.8435-4.5472 5.306-8.7531 5.306-5.7792 0-9.4336-3.635-9.4336-11.2795 0-6.7269 3.4838-11.2804 9.0933-11.2804 5.9915 0 8.8394 4.6379 8.8394 11.3639zm19.0389 5.5143c2.082 2.9242 3.9528 3.6758 6.8415 3.6758 2.8043 0 4.929-1.7962 4.929-4.1355 0-6.308-13.0026-2.7573-13.0026-10.4861 0-4.0938 3.2715-5.9317 7.0112-5.9317 3.697 0 6.0341 1.4199 7.6064 3.927l-1.9552 1.3364c-1.486-2.0047-3.1018-3.2587-5.7355-3.2587-2.465 0-4.3775 1.1696-4.3775 3.8018 0 5.3052 13.0026 2.1725 13.0026 10.6113 0 3.8853-3.6534 6.1412-7.648 6.1412-3.4004 0-6.4597-1.3374-8.5418-4.3867z"/><path fill="#020202" d="M9.1406 12.2244c-2.1535 0-3.6562 1.5441-3.6562 3.4942 0 1.949 1.5027 3.4923 3.6562 3.4923 1.9097 0 3.4532-1.5432 3.4532-3.4923 0-1.95-1.5435-3.4942-3.4532-3.4942zM4.6315 32.0456c0 1.6247 1.3803 2.356 5.6058 2.356 3.2493 0 4.3469-1.6247 4.3469-2.356 0-.975-1.5028-2.4366-6.378-2.4366-2.7626 0-3.5747 1.5431-3.5747 2.4366zM19.337 11.899c-1.1773 0-2.478 0-3.2502.4884.6499.8935 1.1384 2.1114 1.1384 3.736 0 3.9808-2.682 6.8234-7.9633 6.8234-2.1933 0-3.9408.0816-3.9408 1.3003 0 3.4117 13.8945-1.2187 13.8945 7.2293 0 3.0066-3.0472 6.2552-9.7905 6.2552C3.7369 37.7317 0 36.0263 0 32.6953c0-2.6396 1.9904-3.8992 3.8185-3.8992v-.0806c-.9753-.609-3.1279-1.1382-3.1279-3.4126 0-2.0307 2.3556-3.5739 3.291-3.8584C2.2342 20.0228.853 18.398.853 15.839c0-3.6952 2.8432-7.3506 8.3285-7.3506 1.7873 0 3.9.7312 5.1998 1.8675.9752-1.2994 2.5595-1.9491 4.9559-1.8675zm13.6985 4.956c-.0807-2.9242-1.6251-4.6305-4.0623-4.6305-2.4381 0-3.9816 1.7063-4.0632 4.6304zM24.91 20.2674c.0816 4.3858 2.032 6.092 4.3886 6.092 2.3565 0 3.4523-1.0565 4.7121-2.5181l3.6563 2.2744c-1.9496 3.0048-4.7937 4.3051-8.857 4.3051-5.4843 0-8.9366-4.2643-8.9366-10.9662s3.4523-10.9662 9.1814-10.9662c5.5251-.0408 8.6122 4.6304 8.6122 9.7066v2.0724zm43.6215 13.1592c.7722.163 1.3813.163 2.1127.163 1.7466 0 2.7218-.4884 3.3309-1.6654.4876-1.0158.813-1.6248.813-2.4784 0-.771-.406-1.6646-.6499-2.5182L68.4907 8.8943H73.57l3.493 12.9979h.0816l3.6146-12.9979h5.0384L79.135 30.0557c-2.2351 6.0522-4.0215 7.677-8.1654 7.677-1.22 0-1.829-.0817-2.438-.1632zM41.8119 8.9517V2.4518h5.5409v6.4999h4.5582v4.0623h-4.5582v11.9412c0 1.1373.6257 1.4626 2.0107 1.4626.8492 0 1.7428-.2438 2.5475-.4069v4.143c-1.5194.163-2.8599.3253-4.3793.3253-4.1114 0-5.7198-1.8685-5.7198-4.8742V13.014H38.595V8.9517zm14.4927 0V2.4518h5.541v6.4999h4.5582v4.0623h-4.5583v11.9412c0 1.1373.6258 1.4626 2.0108 1.4626.8491 0 1.7428-.2438 2.5475-.4069v4.143c-1.5194.163-2.86.3253-4.3794.3253-4.1114 0-5.7198-1.8685-5.7198-4.8742V13.014h-3.2168V8.9517z"/></g></svg>