<?xml version="1.0" encoding="utf-8"?>
<!-- Generator: Adobe Illustrator 19.2.1, SVG Export Plug-In . SVG Version: 6.00 Build 0)  -->
<svg version="1.1" id="layer" xmlns="http://www.w3.org/2000/svg" xmlns:xlink="http://www.w3.org/1999/xlink" x="0px" y="0px"
	 viewBox="0 0 652 652" style="enable-background:new 0 0 652 652;" xml:space="preserve">
<style type="text/css">
	.st0{fill:#E60012;}
</style>
<g>
	<path class="st0" d="M538.9,312.9c2.3-16.3,15.5-32.7,33.6-32.7c18.9,0,27.4,17.6,29.5,32.7L538.9,312.9z M626.1,336v-12.8
		c0-40.8-20.9-66.2-54.6-66.2c-33.9,0-57.5,28.6-57.5,69.6c0,32.1,16,69.6,61.1,69.6l0.6,0c16.9-0.1,34.2-5.3,43.8-12.3l-4.1-21.1
		c-13.7,7.4-30,10.3-38.5,10.2c-11.7-0.1-20.9-3.7-27.5-10.8c-6.8-7.4-9.9-17.6-10.7-26.4C540.3,335.8,626.1,336,626.1,336"/>
</g>
<polygon class="st0" points="516.2,258.5 483.5,258.5 433.8,310 433.8,258.5 409.3,258.5 409.3,393.7 433.8,393.7 433.8,336.1 
	482.9,393.7 516.3,393.7 453.3,322.8 "/>
<g>
	<path class="st0" d="M232.4,329.4v17.5c0,12.1-16.9,26-34,26.1c-11.4,0.1-20.5-4.8-20.5-17.3c0-21.8,26.2-25.6,52.8-26.3
		L232.4,329.4z M226.6,259.4c-4.9-1.5-10.4-2.2-17.4-2.2c-17.7,0-35,5.4-46,11.6l3.8,24.1c9.5-5.8,20-10.4,34.6-12.2
		c14.8-1.8,24.7,0.7,28.8,10.6c1.4,3.4,2.1,8.6,2.1,14.9v0.2c-29.7,0.2-78.4,4.1-78.4,50c0,14.4,8,39.9,41.1,39.9
		c9.5,0,27-2.9,37.3-14.6v12h24.4V308C256.9,282,246.7,265.7,226.6,259.4"/>
	<path class="st0" d="M336.7,257c-14,0-25.8,6.4-31.9,13v-10h-24.5v133.7h24.5v-76c0.1-12.3,4.3-37.5,31.9-37.5
		c8.7,0,24.2,3.1,24.2,30.3v83.2h24.5v-87C385.3,272.8,367.1,257,336.7,257"/>
</g>
<polygon class="st0" points="127.6,258.5 89.8,354.7 52,258.5 26.1,258.5 78.7,393.7 101,393.7 153.6,258.5 "/>
</svg>
