<?xml version="1.0" standalone="no"?>
<!DOCTYPE svg PUBLIC "-//W3C//DTD SVG 20010904//EN"
 "http://www.w3.org/TR/2001/REC-SVG-20010904/DTD/svg10.dtd">
<svg version="1.0" xmlns="http://www.w3.org/2000/svg"
 width="400.000000pt" height="400.000000pt" viewBox="0 0 400.000000 400.000000"
 preserveAspectRatio="xMidYMid meet">

<g transform="translate(0.000000,400.000000) scale(0.100000,-0.100000)"
fill="#000000" stroke="none">
<path d="M728 2469 c-36 -21 -16 -79 27 -79 42 0 59 44 29 74 -18 18 -32 20
-56 5z"/>
<path d="M740 2328 c0 -12 -13 -36 -30 -53 -39 -41 -48 -83 -22 -115 l19 -23
-44 -42 c-38 -37 -43 -47 -43 -86 0 -106 100 -168 196 -123 45 21 74 70 74
124 0 38 -5 49 -43 85 -41 39 -42 41 -25 60 25 26 22 68 -6 102 -13 15 -31 43
-40 61 -19 37 -36 42 -36 10z"/>
<path d="M3546 2303 c-3 -3 -6 -17 -6 -30 0 -25 -28 -58 -85 -101 l-30 -23 48
6 c34 5 47 3 47 -6 0 -17 -102 -169 -130 -194 l-22 -20 3 21 c2 11 -2 28 -9
37 -11 13 -6 21 38 58 27 23 50 46 50 50 0 5 -13 15 -30 24 -27 14 -32 14 -61
-4 -18 -11 -60 -27 -95 -37 -58 -15 -65 -15 -88 -1 -19 13 -25 13 -29 3 -8
-21 4 -64 24 -82 19 -17 22 -17 76 10 30 15 58 25 61 22 11 -12 -30 -56 -52
-56 -29 0 -35 -6 -29 -31 3 -10 14 -19 24 -19 24 0 24 -15 -1 -51 -20 -27 -20
-30 -4 -54 9 -14 24 -25 33 -25 10 0 50 40 89 90 40 50 79 90 86 90 8 0 24
-16 36 -35 26 -42 47 -45 56 -8 5 20 2 30 -14 44 -12 9 -22 20 -22 23 0 7 46
31 79 41 24 7 24 7 18 -46 -7 -74 -34 -139 -57 -139 -10 0 -33 12 -50 26 -17
15 -33 24 -36 21 -8 -8 48 -108 67 -120 27 -17 68 1 92 41 13 20 36 75 52 121
l29 83 -32 29 c-23 20 -43 29 -67 29 -32 0 -35 3 -35 28 0 15 -5 33 -12 40 -6
6 -10 13 -7 14 2 2 17 10 33 18 47 25 54 45 26 75 -30 32 -55 47 -64 38z"/>
<path d="M1726 2283 c-3 -3 -6 -26 -6 -50 0 -38 6 -50 46 -93 l46 -50 -28 -10
c-46 -18 -151 -38 -264 -50 -140 -16 -138 -15 -109 -46 30 -33 91 -64 123 -64
14 0 71 24 128 54 97 51 175 82 183 74 2 -2 -39 -38 -91 -81 -52 -42 -94 -82
-94 -87 0 -5 13 -24 28 -41 l29 -32 87 48 c104 57 126 51 65 -18 -22 -26 -35
-47 -27 -47 19 0 150 75 171 98 21 22 14 70 -10 79 -13 5 -62 -3 -130 -23 -17
-5 -23 -2 -23 9 0 16 49 51 128 91 53 27 65 49 40 74 -17 17 -46 15 -111 -7
-57 -20 -73 -17 -56 9 19 32 10 72 -25 104 -40 38 -91 68 -100 59z"/>
<path d="M524 2245 c-12 -9 -14 -14 -6 -15 7 0 22 -22 34 -50 23 -55 42 -63
60 -25 6 14 19 25 30 25 25 0 26 50 1 50 -10 0 -27 7 -37 15 -11 8 -29 15 -41
15 -12 0 -30 -7 -41 -15z"/>
<path d="M904 2245 c-10 -8 -27 -15 -36 -15 -23 0 -25 -50 -3 -50 8 0 22 -11
31 -25 9 -14 22 -25 28 -25 18 0 67 113 53 122 -19 12 -52 9 -73 -7z"/>
<path d="M2340 2218 c0 -39 -15 -58 -44 -58 -50 -1 -58 -42 -10 -54 36 -9 28
-42 -9 -38 -19 2 -27 -2 -27 -12 0 -8 -8 -19 -17 -25 -16 -9 -15 -11 9 -20 30
-11 47 -33 30 -39 -20 -6 -14 -21 15 -35 26 -14 26 -15 5 -21 -29 -9 -28 -20
3 -34 14 -6 25 -18 25 -27 0 -23 28 -18 41 8 6 12 21 30 33 39 18 15 19 19 6
27 -8 5 -18 7 -22 5 -4 -3 -8 -2 -8 3 0 4 14 16 32 26 23 13 28 21 20 29 -19
19 17 70 48 66 22 -3 25 -8 24 -40 -2 -51 -23 -98 -44 -98 -14 0 -16 -6 -11
-36 6 -39 29 -61 53 -52 20 8 80 171 76 205 -3 25 -8 29 -53 36 -27 5 -62 15
-77 23 -33 18 -48 18 -48 0 0 -20 -19 -31 -31 -19 -10 10 22 43 67 69 18 11
18 12 -1 50 -11 21 -20 40 -21 41 0 2 -15 6 -32 9 -31 6 -32 5 -32 -28z m30
-195 c0 -12 -33 -43 -47 -43 -16 0 -17 22 -1 38 13 13 48 17 48 5z"/>
<path d="M3260 2225 c0 -27 40 -75 62 -75 23 0 78 39 78 55 0 11 -11 15 -37
15 -21 1 -49 7 -63 15 -35 20 -40 19 -40 -10z"/>
<path d="M2839 2238 c0 -2 -2 -17 -3 -35 -2 -17 -13 -44 -24 -60 -44 -63 -103
-129 -142 -159 -43 -34 -42 -37 3 -48 20 -5 35 0 57 16 16 12 31 20 33 17 2
-2 14 -30 27 -62 13 -33 28 -61 35 -63 6 -3 28 3 49 11 28 12 42 13 49 6 6 -6
21 -11 34 -11 18 0 34 16 67 68 59 92 63 106 32 136 -36 37 -67 41 -142 17
-37 -12 -71 -21 -77 -21 -5 0 7 22 27 49 44 60 46 90 6 119 -16 13 -30 21 -31
20z m141 -215 c-1 -37 -39 -103 -65 -113 -63 -24 -75 -2 -15 25 22 10 40 24
40 30 0 15 -24 26 -42 21 -7 -3 -26 -7 -42 -11 -27 -6 -28 -5 -15 11 18 22 87
53 117 54 14 0 22 -6 22 -17z"/>
<path d="M481 2171 c-7 -5 -22 -6 -32 -4 -20 6 -69 -21 -69 -37 0 -5 10 -10
22 -12 12 -2 29 -16 38 -32 8 -16 25 -39 38 -52 12 -13 22 -30 22 -38 0 -11 6
-9 24 8 22 19 24 27 17 59 -7 27 -5 39 5 48 19 15 18 25 -6 49 -22 22 -37 25
-59 11z"/>
<path d="M970 2162 c-22 -18 -23 -22 -11 -45 7 -14 11 -40 9 -59 -4 -26 0 -38
18 -55 22 -20 24 -20 24 -4 0 10 7 25 16 32 9 8 27 31 40 51 15 23 32 38 44
38 11 0 20 4 20 10 0 15 -44 40 -71 39 -13 0 -33 2 -45 6 -13 4 -29 -1 -44
-13z"/>
<path d="M640 2166 c0 -2 7 -7 16 -10 8 -3 12 -2 9 4 -6 10 -25 14 -25 6z"/>
<path d="M658 2123 c-15 -14 -20 -14 -35 -3 -17 13 -17 13 0 -5 17 -19 17 -19
39 3 12 12 20 22 17 22 -2 0 -12 -7 -21 -17z"/>
<path d="M847 2120 c23 -24 23 -24 40 -5 17 18 17 18 0 6 -15 -12 -21 -11 -40
5 l-22 18 22 -24z"/>
<path d="M560 2106 c-20 -25 -8 -61 21 -64 36 -4 56 38 28 62 -24 20 -33 20
-49 2z"/>
<path d="M898 2103 c-12 -14 -13 -23 -4 -44 9 -20 16 -24 36 -19 28 7 39 42
20 66 -16 19 -34 18 -52 -3z"/>
<path d="M390 2025 c-7 -8 -18 -15 -25 -15 -17 0 -45 -33 -45 -53 0 -12 9 -17
28 -17 16 0 37 -7 48 -15 10 -8 32 -15 47 -15 17 0 37 -10 51 -25 28 -30 46
-32 46 -7 0 26 -29 82 -46 89 -8 3 -11 9 -8 14 3 6 -2 21 -10 34 -19 29 -66
34 -86 10z"/>
<path d="M1036 2024 c-9 -8 -16 -24 -16 -33 0 -10 -7 -24 -15 -31 -8 -7 -15
-18 -15 -26 0 -7 -7 -17 -15 -21 -16 -9 -10 -53 8 -53 5 0 20 11 33 25 14 15
34 25 51 25 15 0 37 7 47 15 11 8 32 15 48 15 18 0 28 5 28 15 0 19 -35 55
-54 55 -8 0 -16 7 -20 15 -7 20 -60 19 -80 -1z"/>
<path d="M536 2000 c-14 -15 -16 -24 -9 -47 8 -24 15 -28 55 -31 l45 -3 -16
50 c-18 56 -40 65 -75 31z"/>
<path d="M899 1969 l-16 -50 45 3 c40 3 47 7 55 31 7 23 5 32 -11 48 -36 33
-55 24 -73 -32z"/>
<path d="M2167 1983 c-10 -16 22 -113 39 -120 23 -8 37 12 30 41 -8 33 -61 93
-69 79z"/>
<path d="M566 1894 c-32 -32 -12 -61 48 -71 33 -5 36 -4 36 19 0 13 5 29 11
35 7 7 1 14 -22 22 -43 15 -55 14 -73 -5z"/>
<path d="M864 1901 c-20 -9 -21 -13 -10 -46 10 -34 13 -36 44 -31 53 8 73 32
54 63 -11 17 -62 25 -88 14z"/>
<path d="M418 1889 c-10 -5 -18 -14 -18 -20 0 -5 -9 -23 -21 -38 -14 -19 -19
-36 -14 -50 7 -22 20 -27 30 -11 3 6 21 10 39 10 18 0 46 7 63 15 23 12 37 13
61 4 20 -7 37 -7 48 -1 15 8 13 11 -14 16 -17 4 -36 14 -43 22 -6 8 -18 14
-27 14 -8 0 -25 11 -38 25 -25 27 -39 30 -66 14z"/>
<path d="M1025 1876 c-14 -14 -32 -26 -39 -26 -8 0 -19 -6 -25 -14 -7 -8 -26
-18 -43 -21 -21 -5 -27 -10 -19 -18 7 -7 21 -7 47 1 28 8 42 8 58 0 12 -7 39
-15 61 -19 22 -3 47 -9 56 -13 11 -5 19 -1 22 9 7 17 -11 65 -25 65 -4 0 -8 6
-8 13 0 19 -13 34 -37 41 -17 5 -29 1 -48 -18z"/>
<path d="M677 1809 c7 -7 15 -10 18 -7 3 3 -2 9 -12 12 -14 6 -15 5 -6 -5z"/>
<path d="M617 1787 c-29 -14 -42 -16 -50 -8 -17 17 -65 13 -75 -6 -15 -30 -13
-118 3 -139 14 -19 14 -18 31 5 9 13 32 29 50 37 19 8 34 21 34 29 0 20 44 47
71 43 33 -5 34 17 2 39 -27 18 -29 18 -66 0z"/>
<path d="M815 1784 c-21 -21 -14 -40 14 -36 27 4 71 -23 71 -43 0 -8 15 -21
34 -29 18 -8 40 -23 48 -35 14 -20 16 -20 31 -3 17 18 19 115 3 140 -9 15 -58
16 -73 1 -7 -7 -21 -6 -48 5 -47 20 -60 20 -80 0z"/>
<path d="M713 1741 c-8 -12 -20 -16 -40 -14 -36 6 -58 -17 -49 -52 8 -29 45
-42 76 -25 19 10 50 65 50 89 0 17 -27 19 -37 2z"/>
<path d="M760 1735 c0 -26 29 -74 51 -86 47 -25 93 16 69 62 -9 16 -19 20 -41
17 -17 -3 -34 1 -40 9 -15 18 -39 16 -39 -2z"/>
<path d="M1426 1673 c15 -27 31 -52 36 -57 4 -6 8 -29 8 -53 0 -36 3 -43 20
-43 16 0 20 7 20 37 0 23 13 59 35 100 36 63 36 63 12 63 -17 0 -28 -10 -44
-42 l-20 -43 -22 43 c-17 33 -27 42 -47 42 l-25 0 27 -47z"/>
<path d="M1602 1639 c3 -70 6 -83 27 -100 29 -24 82 -25 110 -1 18 14 22 29
24 100 2 79 1 82 -20 82 -22 0 -23 -4 -23 -75 0 -65 -3 -76 -21 -85 -36 -20
-49 3 -49 86 0 73 0 74 -26 74 l-26 0 4 -81z"/>
<path d="M1800 1620 c0 -93 1 -100 20 -100 18 0 20 7 20 73 l0 72 43 -73 c32
-56 47 -72 62 -70 18 3 20 12 23 101 3 91 2 97 -17 97 -18 0 -20 -8 -23 -67
l-3 -68 -38 68 c-31 54 -44 67 -63 67 -24 0 -24 -1 -24 -100z"/>
<path d="M2002 1623 c3 -83 6 -98 20 -101 15 -3 18 7 20 67 l3 71 40 -67 c28
-48 46 -68 60 -68 18 0 20 8 23 98 3 91 2 97 -17 97 -18 0 -20 -8 -23 -66 l-3
-66 -38 66 c-31 53 -44 66 -63 66 -25 0 -25 0 -22 -97z"/>
<path d="M2230 1633 c-18 -48 -35 -94 -38 -100 -8 -24 38 -14 49 10 14 31 79
30 90 -2 5 -12 17 -21 29 -21 24 0 25 -5 -19 117 -24 66 -33 78 -53 81 -23 3
-28 -5 -58 -85z m74 -10 c6 -20 4 -23 -17 -23 -24 0 -25 1 -14 35 11 36 17 34
31 -12z"/>
<path d="M2407 1623 c1 -78 5 -99 17 -101 12 -3 16 11 18 70 l3 73 40 -70 c28
-49 47 -71 63 -73 22 -3 22 -1 22 97 0 94 -1 101 -20 101 -18 0 -20 -7 -20
-67 l0 -68 -41 68 c-30 50 -46 67 -62 67 -21 0 -22 -3 -20 -97z"/>
<path d="M2682 1623 l3 -98 40 -3 c62 -5 114 14 121 45 4 14 2 33 -3 42 -6 9
-8 32 -5 50 7 47 -15 61 -95 61 l-64 0 3 -97z m116 38 c-2 -10 -15 -17 -36
-19 -28 -3 -32 0 -32 20 0 22 4 24 36 20 26 -3 34 -9 32 -21z m7 -76 c0 -16
-8 -21 -37 -23 -35 -3 -38 -1 -38 23 0 24 3 26 38 23 29 -2 37 -7 37 -23z"/>
<path d="M2927 1703 c-2 -10 -19 -55 -36 -100 l-30 -83 23 0 c16 0 26 7 29 23
8 31 77 31 88 -2 8 -19 49 -31 49 -13 0 4 -15 48 -34 97 -29 77 -37 90 -59 93
-17 2 -26 -3 -30 -15z m47 -80 c6 -20 4 -23 -17 -23 -24 0 -25 1 -14 35 11 36
17 34 31 -12z"/>
<path d="M3080 1620 c0 -93 1 -100 20 -100 19 0 20 7 20 100 0 93 -1 100 -20
100 -19 0 -20 -7 -20 -100z"/>
<path d="M3175 1657 c22 -41 35 -77 35 -100 0 -30 4 -37 20 -37 17 0 20 7 20
39 0 26 11 59 34 100 l35 61 -25 0 c-20 0 -29 -8 -42 -40 -9 -22 -19 -40 -22
-40 -3 0 -13 18 -22 40 -13 32 -22 40 -43 40 l-26 0 36 -63z"/>
<path d="M3366 1711 c-9 -14 -66 -172 -66 -182 0 -18 37 -8 47 13 14 31 72 31
86 1 10 -24 47 -32 47 -12 0 7 -15 52 -32 100 -28 75 -36 89 -55 89 -12 0 -24
-4 -27 -9z m43 -98 c1 -7 -8 -13 -19 -13 -23 0 -24 8 -9 47 l12 28 7 -25 c5
-14 8 -31 9 -37z"/>
<path d="M3518 1690 c-28 -28 -30 -36 -25 -78 8 -76 76 -115 140 -80 35 18 46
40 47 91 0 64 -31 97 -90 97 -33 0 -48 -6 -72 -30z m104 -17 c24 -22 24 -77
-2 -103 -25 -25 -32 -25 -61 -1 -30 24 -32 87 -4 107 25 18 44 18 67 -3z"/>
<path d="M742 1675 c-7 -14 -23 -31 -37 -37 -33 -15 -29 -36 14 -65 31 -21 35
-21 62 -8 37 20 57 54 38 66 -8 5 -17 9 -22 9 -4 0 -16 14 -26 30 l-18 30 -11
-25z"/>
</g>
</svg>
