<?xml version="1.0" encoding="utf-8"?>
<!-- Generator: Adobe Illustrator 24.0.0, SVG Export Plug-In . SVG Version: 6.00 Build 0)  -->
<svg version="1.1" id="图层_1" xmlns="http://www.w3.org/2000/svg" xmlns:xlink="http://www.w3.org/1999/xlink" x="0px" y="0px"
	 viewBox="0 0 48 48" style="enable-background:new 0 0 48 48;" xml:space="preserve">
<style type="text/css">
	.st0{fill:#5A7A4F;stroke:#5A7A4F;stroke-width:1.5;stroke-miterlimit:10;}
</style>
<path class="st0" d="M36.2,5.8c-0.2,0-0.5,0.1-0.7,0.3L8.6,33L6,42l9-2.6l21.6-21.6l0.9-1l4.4-4.4c0.3-0.3,0.4-0.9,0.1-1.2L36.7,6
	C36.6,5.9,36.4,5.8,36.2,5.8z M36.4,15.8l-4.2-4.2l4-4l4.2,4.2C40.5,11.8,36.5,15.8,36.4,15.8z M8.2,39.8l1.8-6l21.3-21.3l4.2,4.2
	L14.2,38.1C14.2,38.1,8.2,39.8,8.2,39.8z M12.1,5.8l-6.4,6.4l11,11l1-1l-9.9-9.9L12.1,8l2.5,2.5l-1.1,1.1l1.1,1l1-1l2.1,2.1l-1,1.1
	l1,1l1-1l2.1,2.1L18.9,19l1,1.1l3.2-3.2C23.1,16.8,12.1,5.8,12.1,5.8z M31.6,25.3l-1.1,1l-1,1.1l1,1l1.1-1l2.1,2.1l-2.1,2.1l1,1
	l2.1-2.1l2.1,2.1l-1,1.1l1,1l1.1-1l2.5,2.5l-4.3,4.2l-9.9-9.9l-1,1.1l11,11l6.4-6.4C42.6,36.3,31.6,25.3,31.6,25.3z"/>
</svg>
