<?xml version="1.0" encoding="utf-8"?>
<!-- Generator: Adobe Illustrator 24.0.0, SVG Export Plug-In . SVG Version: 6.00 Build 0)  -->
<svg version="1.1" id="图层_1" xmlns="http://www.w3.org/2000/svg" xmlns:xlink="http://www.w3.org/1999/xlink" x="0px" y="0px"
	 viewBox="0 0 48 48" style="enable-background:new 0 0 48 48;" xml:space="preserve">
<style type="text/css">
	.st0{fill:#5A7A4F;stroke:#5A7A4F;stroke-width:0.75;stroke-miterlimit:10;}
</style>
<path class="st0" d="M29.3,27.3c0.1-0.1,0.3-0.2,0.4-0.3c2.7-1.7,6-2.9,9.3-3.4c0.2-2,1.9-3.6,4-3.6c2.2,0,4,1.8,4,4
	c0,2.2-1.8,4-4,4c-1.7,0-3.1-1-3.7-2.4c-3,0.5-6.1,1.6-8.5,3.1c-3.2,2-5.3,4.7-5.8,8.1v4.8c0.6-0.9,1.3-1.7,2.1-2.5
	c1.9-1.8,4.2-3.1,6.9-3.7c0-0.1,0-0.1,0-0.2c0-2.2,1.8-4,4-4c2.2,0,4,1.8,4,4c0,2.2-1.8,4-4,4c-1.4,0-2.7-0.8-3.4-1.9
	c-2.5,0.5-4.5,1.7-6.1,3.2c-1.4,1.4-2.5,3-3.5,5.1V46c0,0.6-0.4,1-1,1c-0.6,0-1-0.4-1-1v-2.5c-0.6-2.4-1.5-4-2.9-4.9
	c-1.2-0.8-2.9-1.3-5.3-1.3c-0.5,1.6-2,2.8-3.8,2.8c-2.2,0-4-1.8-4-4c0-2.2,1.8-4,4-4c1.9,0,3.6,1.4,3.9,3.2c2.7,0.1,4.7,0.6,6.3,1.6
	c0.7,0.5,1.3,1,1.8,1.7v-5.3c0,0,0-0.1,0-0.1c-0.3-1.9-1.7-4.5-3.9-6.8c-0.3-0.3-0.6-0.6-1-0.9c0,0,0,0,0,0
	c-0.3-0.2-0.6-0.3-0.9-0.4c-0.5,0-1,0.1-1.7,0.5c-0.3,0.2-0.7,0.4-1.1,0.7c-0.2,0.2-1.1,0.8-1.3,0.9c-1.7,1.2-2.9,1.8-4.3,2.2
	c-1.9,0.5-3.8,0.4-5.8-0.5c-0.5-0.2-0.7-0.8-0.5-1.3c0.2-0.5,0.8-0.7,1.3-0.5c1.6,0.7,3,0.8,4.5,0.4c1.2-0.3,2.2-0.9,3.7-1.9
	c0.2-0.1,1-0.7,1.3-0.9c0.5-0.3,0.9-0.6,1.3-0.8c0.3-0.2,0.7-0.3,1-0.5c-2-1.3-4.3-2.3-6.9-3c-0.7,1.2-2,2-3.5,2c-2.2,0-4-1.8-4-4
	s1.8-4,4-4s4,1.8,4,4v0c4.7,1.3,8.6,3.6,11.5,6.6c1,1,1.8,2.1,2.5,3.2V22c-0.2-1.1-0.6-2-1.1-2.7c-0.5-0.7-1.1-1.3-2.2-2.1
	c-0.2-0.2-1.1-0.8-1.1-0.8c-0.5-0.3-0.8-0.6-1.2-0.9c-0.9-0.8-1.8-1.6-2.6-2.5c-0.3-0.4-0.6-0.8-0.9-1.2c-0.5,0.2-1.1,0.4-1.7,0.4
	c-2.2,0-4-1.8-4-4s1.8-4,4-4s4,1.8,4,4c0,0.9-0.3,1.7-0.8,2.4c0.3,0.4,0.6,0.8,0.9,1.2c0.7,0.8,1.4,1.6,2.3,2.3
	c0.3,0.3,0.7,0.5,1.1,0.9c0,0,0.9,0.6,1.1,0.8c0.9,0.7,1.5,1.2,2.1,1.9V8.9c-1.7-0.4-3-2-3-3.9c0-2.2,1.8-4,4-4s4,1.8,4,4
	c0,1.9-1.3,3.4-3,3.9v8.8c0,0,0-0.1,0.1-0.1c0.6-1.3,1.3-2.4,2.1-3.4c0.8-0.8,1.7-1.6,2.9-2.4c0.5-0.4,1-0.7,2-1.2
	c0.7-0.5,1.1-0.7,1.5-0.9c-0.2-0.5-0.3-1.1-0.3-1.6c0-2.2,1.8-4,4-4c2.2,0,4,1.8,4,4s-1.8,4-4,4c-0.9,0-1.7-0.3-2.4-0.8
	c-0.4,0.2-0.8,0.5-1.7,1c-0.9,0.6-1.4,0.9-1.9,1.2c-2.2,1.5-3.4,2.8-4.3,4.9c-1,2.3-1.6,5.6-1.9,10.8v2.3c0.4-0.5,0.8-1.1,1.2-1.6
	c0,0,0,0,0,0c0.1-0.3,0.7-1.9,0.8-2.4c0.4-1,0.7-1.8,1-2.5c1.1-2.5,2.4-4.5,4.2-6.2c2.1-2,4.8-3.4,8.3-4.2c0.5-0.1,1.1,0.2,1.2,0.7
	s-0.2,1.1-0.7,1.2c-3.1,0.7-5.5,2-7.4,3.7c-1.6,1.5-2.7,3.3-3.7,5.5C29.7,26.2,29.5,26.7,29.3,27.3z M24,7c1.1,0,2-0.9,2-2
	s-0.9-2-2-2s-2,0.9-2,2S22.9,7,24,7z M5,20.4c1.1,0,2-0.9,2-2c0-1.1-0.9-2-2-2s-2,0.9-2,2C3,19.5,3.9,20.4,5,20.4z M11,38
	c1.1,0,2-0.9,2-2c0-1.1-0.9-2-2-2s-2,0.9-2,2C9,37.1,9.9,38,11,38z M12.3,10c1.1,0,2-0.9,2-2s-0.9-2-2-2s-2,0.9-2,2S11.2,10,12.3,10
	z M37.2,10c1.1,0,2-0.9,2-2s-0.9-2-2-2s-2,0.9-2,2S36.1,10,37.2,10z M43,26c1.1,0,2-0.9,2-2c0-1.1-0.9-2-2-2s-2,0.9-2,2
	C41,25.1,41.9,26,43,26z M38,37.2c1.1,0,2-0.9,2-2s-0.9-2-2-2c-1.1,0-2,0.9-2,2S36.9,37.2,38,37.2z"/>
</svg>
