<?xml version="1.0" standalone="no"?><!DOCTYPE svg PUBLIC "-//W3C//DTD SVG 1.1//EN" "http://www.w3.org/Graphics/SVG/1.1/DTD/svg11.dtd"><svg t="1751528690880" class="icon" viewBox="0 0 1024 1024" version="1.1" xmlns="http://www.w3.org/2000/svg" p-id="9107" xmlns:xlink="http://www.w3.org/1999/xlink" width="48" height="48"><path d="M802.5088 143.1552c-248.832 33.4848-393.5232 160.5632-478.72 308.4288-57.856 100.1472-88.7808 210.8416-104.5504 310.0672a577.536 577.536 0 0 1 33.5872-48.5376c40.1408-51.6096 87.6544-90.7264 146.432-103.8336l30.5152-6.656c138.8544-30.3104 252.416-55.1936 329.728-174.08l-85.4016-38.4a45.056 45.056 0 0 1-7.3728-78.0288c71.8848-50.8928 113.7664-120.832 135.7824-168.96z m44.8512-81.6128c27.9552-2.1504 57.0368 24.1664 46.3872 57.7536-10.0352 31.8464-48.2304 137.5232-141.5168 222.1056l76.4928 34.4064a38.912 38.912 0 0 1 18.6368 53.3504c-94.0032 181.9648-249.9584 215.552-397.6192 247.3984l-33.792 7.3728c-34.816 7.7824-68.4032 31.9488-102.7072 76.0832-34.304 44.1344-66.56 104.8576-99.328 179.2a44.9536 44.9536 0 0 1-85.9136-18.944c3.4816-130.048 28.16-331.1616 129.536-506.88C360.2432 235.2128 540.4672 85.7088 847.36 61.44z" fill="#5a7a4f" p-id="9108"></path></svg>