<?xml version="1.0" encoding="utf-8"?>
<!-- Generator: Adobe Illustrator 24.0.0, SVG Export Plug-In . SVG Version: 6.00 Build 0)  -->
<svg version="1.1" id="图层_1" xmlns="http://www.w3.org/2000/svg" xmlns:xlink="http://www.w3.org/1999/xlink" x="0px" y="0px"
	 viewBox="0 0 200 200" style="enable-background:new 0 0 200 200;" xml:space="preserve">
<style type="text/css">
	.st0{fill:#333333;stroke:#333333;stroke-width:3;stroke-miterlimit:10;}
</style>
<path class="st0" d="M100.9,174.6c-9.9,0-19.5-1.9-28.5-5.8c-8.7-3.7-16.6-9-23.3-15.7c-6.7-6.7-12-14.6-15.7-23.3
	c-3.8-9-5.8-18.6-5.8-28.5s1.9-19.5,5.8-28.5C37,64,42.3,56.1,49,49.4c6.7-6.7,14.6-12,23.3-15.7c9-3.8,18.6-5.8,28.5-5.8
	s19.5,1.9,28.5,5.8c8.7,3.7,16.6,9,23.3,15.7c6.7,6.7,12,14.6,15.7,23.3c3.8,9,5.8,18.6,5.8,28.5c0,19.5-7.6,37.8-21.3,51.7
	c-1.5,1.5-4,1.5-5.5,0c-1.5-1.5-1.5-4,0-5.5c12.3-12.4,19-28.7,19-46.2s-6.8-34-19.2-46.3c-12.4-12.4-28.8-19.2-46.3-19.2
	s-34,6.8-46.3,19.2c-12.4,12.4-19.2,28.8-19.2,46.3s6.8,34,19.2,46.3c12.4,12.4,28.8,19.2,46.3,19.2c2.2,0,3.9,1.7,3.9,3.9
	S103,174.6,100.9,174.6z"/>
<path class="st0" d="M100.8,80.9c-7.9,0-14.3-6.4-14.3-14.3s6.4-14.3,14.3-14.3S115,58.7,115,66.6S108.6,80.9,100.8,80.9z
	 M100.8,60.2c-3.6,0-6.4,2.9-6.4,6.4c0,3.6,2.9,6.4,6.4,6.4s6.4-2.9,6.4-6.4C107.2,63,104.3,60.2,100.8,60.2z M100.8,150.4
	c-7.9,0-14.3-6.4-14.3-14.3s6.4-14.3,14.3-14.3s14.3,6.4,14.3,14.3S108.6,150.4,100.8,150.4z M100.8,129.7c-3.6,0-6.4,2.9-6.4,6.4
	s2.9,6.4,6.4,6.4s6.4-2.9,6.4-6.4S104.3,129.7,100.8,129.7z M100.8,105.1c-21.3,0-38.7-17.3-38.7-38.7c0-3.9,0.6-7.8,1.7-11.5
	c0.6-2.1,2.8-3.2,4.9-2.6c2.1,0.6,3.2,2.8,2.6,4.9c-0.9,3-1.4,6.1-1.4,9.2c0,17,13.8,30.9,30.9,30.9c2.2,0,3.9,1.7,3.9,3.9
	C104.7,103.3,102.9,105.1,100.8,105.1L100.8,105.1z"/>
<path class="st0" d="M100.8,174.6c-2.2,0-3.9-1.7-3.9-3.9s1.7-3.9,3.9-3.9c17,0,30.9-13.8,30.9-30.9s-13.8-30.9-30.9-30.9
	c-2.2,0-3.9-1.7-3.9-3.9s1.7-3.9,3.9-3.9c21.3,0,38.7,17.3,38.7,38.7S122.1,174.6,100.8,174.6z"/>
</svg>
