<?xml version="1.0" encoding="utf-8"?>
<!-- Generator: Adobe Illustrator 24.0.0, SVG Export Plug-In . SVG Version: 6.00 Build 0)  -->
<svg version="1.1" id="图层_1" xmlns="http://www.w3.org/2000/svg" xmlns:xlink="http://www.w3.org/1999/xlink" x="0px" y="0px"
	 viewBox="0 0 200 200" style="enable-background:new 0 0 200 200;" xml:space="preserve">
<style type="text/css">
	.st0{fill:#333333;stroke:#333333;stroke-width:3;stroke-miterlimit:10;}
	.st1{fill:#2C2C2C;}
</style>
<path class="st0" d="M165.3,56.4h-22l-9.5-22.8c-2.2-5.3-7.3-8.7-13.1-8.7H79.8c-5.7,0-10.9,3.4-13.1,8.7l-9.5,22.8h-22
	c-12.2,0-22.2,10-22.2,22.2v73.9c0,12.2,10,22.2,22.2,22.2h130.1c12.2,0,22.2-10,22.2-22.2l0-73.9C187.6,66.4,177.6,56.4,165.3,56.4
	z M179.5,152.5c0,7.8-6.3,14.1-14.1,14.1H35.3c-7.8,0-14.1-6.3-14.1-14.1l0-73.9c0-7.8,6.3-14.1,14.1-14.1H60c1.6,0,3.1-1,3.7-2.5
	l10.5-25.3c0.9-2.3,3.1-3.7,5.6-3.7h40.9c2.5,0,4.7,1.5,5.6,3.7L136.9,62c0.6,1.5,2.1,2.5,3.7,2.5h24.7c7.8,0,14.1,6.3,14.1,14.1
	L179.5,152.5L179.5,152.5z"/>
<path class="st1" d="M100.3,68.3c-22.6,0-41,18.4-41,41s18.4,41,41,41s41-18.4,41-41S122.9,68.3,100.3,68.3z M100.3,142.3
	c-18.2,0-33-14.8-33-33s14.8-33,33-33c18.2,0,33,14.8,33,33S118.5,142.3,100.3,142.3z"/>
<path class="st1" d="M89.1,126c-5.5-3.7-8.8-9.9-8.8-16.6c0-2.2-1.8-4-4-4s-4,1.8-4,4c0,9.4,4.6,18.1,12.4,23.3
	c0.7,0.5,1.5,0.7,2.3,0.7c1.3,0,2.6-0.6,3.4-1.8C91.4,129.7,91,127.2,89.1,126z"/>
<path class="st1" d="M51.5,74.4h-17c-2.2,0-4,1.8-4,4s1.8,4,4,4h17c2.2,0,4-1.8,4-4S53.7,74.4,51.5,74.4z"/>
</svg>
