<?xml version="1.0" standalone="no"?><!DOCTYPE svg PUBLIC "-//W3C//DTD SVG 1.1//EN" "http://www.w3.org/Graphics/SVG/1.1/DTD/svg11.dtd"><svg t="1751357526388" class="icon" viewBox="0 0 1423 1024" version="1.1" xmlns="http://www.w3.org/2000/svg" p-id="17746" xmlns:xlink="http://www.w3.org/1999/xlink" width="277.9296875" height="200"><path d="M869.044493 751.878899H555.639003c-36.339844 0-70.164642-18.050158-90.4561-48.282033-20.137475-29.975239-24.021253-67.735142-10.436584-101.012448 78.890311-192.974152 162.554076-286.800755 255.764749-286.800755 117.488563 0 205.7718 155.59065 259.169471 286.133498 13.75576 33.636598 9.889091 71.738684-10.351038 101.867905-20.205911 30.112112-53.962273 48.093833-90.285008 48.093833z m-158.533425-369.335316c-60.412424 0-129.29388 87.119814-193.949374 245.293947-5.25251 12.848975-3.781123 26.895591 4.037761 38.546925 8.007084 11.890862 20.770513 18.734524 35.039548 18.734524h313.40549c14.234816 0 26.946918-6.758116 34.868457-18.546324 7.921538-11.822426 9.375817-26.177006 3.952214-39.402382-63.577618-155.470886-135.504503-244.62669-197.371205-244.62669z" p-id="17747"></path><path d="M1373.217055 1023.965782H50.080599c-16.168151 0-31.326862-7.801774-40.736896-20.941605a50.057964 50.057964 0 0 1-6.655461-45.305041C224.765066 307.862124 456.799418-4.225961 715.198977 0.051327 1136.152612 9.016524 1409.813536 920.934454 1421.259561 959.755125c4.44838 15.141602 1.522715 31.497953-7.938648 44.158728a50.12469 50.12469 0 0 1-40.103858 20.086147zM120.570316 923.825901h1184.43254C1213.400444 647.290638 979.398539 105.785902 713.043223 100.15699c-135.795358-3.182303-348.924095 139.798901-592.472907 823.668911z" p-id="17748"></path></svg>